<?xml version="1.0" encoding="utf-8" ?>
<svg baseProfile="tiny" height="543" version="1.2" width="1008" xmlns="http://www.w3.org/2000/svg" xmlns:ev="http://www.w3.org/2001/xml-events" xmlns:xlink="http://www.w3.org/1999/xlink"><defs /><polyline fill="none" points="790,528 792,528" stroke="white" stroke-width="1" /><polyline fill="none" points="775,528 774,529 773,529 774,529 775,528 777,528 778,529 777,528" stroke="white" stroke-width="1" /><polyline fill="none" points="213,528 215,528" stroke="white" stroke-width="1" /><polyline fill="none" points="192,528 192,529" stroke="white" stroke-width="1" /><polyline fill="none" points="184,528 185,529 186,528 188,528 189,529 188,528 186,528 185,529" stroke="white" stroke-width="1" /><polyline fill="none" points="798,527 800,527 801,528 802,528 802,527 801,528 800,527" stroke="white" stroke-width="1" /><polyline fill="none" points="770,527 769,528 765,528 770,528" stroke="white" stroke-width="1" /><polyline fill="none" points="339,527 338,528 290,528 289,529 280,529 279,528 278,529 271,529 270,530 269,529 261,529 260,530 213,530 212,531 200,531 199,530 201,528 204,528 205,529 205,528 201,528 199,530 198,529 195,532 194,531 182,531 181,530 181,528 177,528 180,528 181,529 180,530 175,530 174,531 158,531 157,530 98,530 97,529 91,529 90,530 89,530 88,529 85,529 84,530 78,530 77,529 73,529 72,530 68,530 67,529 64,529 63,530 57,530 56,529 51,529 50,528 51,529 56,529 57,530 63,530 64,529 67,529 68,530 72,530 73,529 77,529 78,530 84,530 85,529 88,529 89,530 90,530 91,529 97,529 98,530 157,530 158,531 174,531 175,530 181,530 182,531 194,531 195,532 196,531 212,531 213,530 260,530 261,529 269,529 270,530 271,529 278,529 279,528 280,529 289,529 290,528 338,528 339,527 346,527 347,528 382,528 383,527 395,527 396,528 636,528 637,527 639,527 640,528 646,528 647,527 648,527 649,528 654,528 655,527 657,527 658,528 694,528 695,529 697,529 698,528 700,528 701,529 716,529 717,530 753,530 754,531 755,530 769,530 770,531 783,531 784,532 785,531 799,531 800,530 807,530 808,531 809,531 810,530 815,530 816,531 821,531 822,530 825,530 826,531 829,531 830,530 844,530 845,529 846,529 847,530 856,530 857,529 863,529 864,530 865,529 867,529 868,528 933,528 868,528 867,529 865,529 864,530 863,529 857,529 856,530 847,530 846,529 845,529 844,530 830,530 829,531 826,531 825,530 822,530 821,531 816,531 815,530 810,530 809,531 808,531 807,530 800,530 799,531 789,531 788,530 787,531 785,531 784,532 783,531 770,531 769,530 755,530 754,531 753,530 717,530 716,529 701,529 700,528 698,528 697,529 695,529 694,528 658,528 657,527 655,527 654,528 649,528 648,527 647,527 646,528 640,528 639,527 637,527 636,528 396,528 395,527 383,527 382,528 347,528 346,527" stroke="white" stroke-width="1" /><polyline fill="none" points="209,527 207,529 208,528 209,529 208,528 209,527 211,527" stroke="white" stroke-width="1" /><polyline fill="none" points="766,526 767,526" stroke="white" stroke-width="1" /><polyline fill="none" points="175,526 175,527 176,526 178,526" stroke="white" stroke-width="1" /><polyline fill="none" points="760,524 761,524" stroke="white" stroke-width="1" /><polyline fill="none" points="171,524 172,524" stroke="white" stroke-width="1" /><polyline fill="none" points="756,523 756,524 755,525 757,525 758,526 762,526 759,526 758,525 757,525 756,524 757,523 758,523" stroke="white" stroke-width="1" /><polyline fill="none" points="161,522 162,522" stroke="white" stroke-width="1" /><polyline fill="none" points="227,521 226,522" stroke="white" stroke-width="1" /><polyline fill="none" points="229,520 229,522 227,524 226,524 225,525 224,525 223,524 224,523 223,524 223,525 226,525 227,524 228,524 229,523" stroke="white" stroke-width="1" /><polyline fill="none" points="235,517 236,518 233,521 232,521 231,520 233,518 231,520 231,521 234,521 236,519 236,518" stroke="white" stroke-width="1" /><polyline fill="none" points="242,512 242,514 239,517 238,517 237,516 240,513 237,516 238,517 240,517 242,515" stroke="white" stroke-width="1" /><polyline fill="none" points="147,510 147,512 149,514 152,514 150,514 149,513 148,513 147,512 147,511 148,510 149,511 148,510" stroke="white" stroke-width="1" /><polyline fill="none" points="835,508 833,510 833,512 833,510" stroke="white" stroke-width="1" /><polyline fill="none" points="248,507 249,508 245,512 244,511 244,510 246,508 244,510 244,512 246,512 248,510 248,509 249,508" stroke="white" stroke-width="1" /><polyline fill="none" points="731,504 730,505 730,507 731,508 732,508 733,509 734,509 735,508" stroke="white" stroke-width="1" /><polyline fill="none" points="959,477 958,478 955,478 958,478" stroke="white" stroke-width="1" /><polyline fill="none" points="686,477 688,477" stroke="white" stroke-width="1" /><polyline fill="none" points="962,474 961,475 957,475 956,476 951,476 950,477 946,477 950,477 951,476 956,476 957,475 962,475 963,474" stroke="white" stroke-width="1" /><polyline fill="none" points="854,471 854,472 855,472 856,473 856,474 855,475 855,476 854,477 853,476 853,474 853,477 855,477 855,475 856,474 856,473 857,472 858,473 857,472 855,472" stroke="white" stroke-width="1" /><polyline fill="none" points="855,463 855,469 857,469 857,463 857,468 856,469 855,468" stroke="white" stroke-width="1" /><polyline fill="none" points="882,458 882,459" stroke="white" stroke-width="1" /><polyline fill="none" points="855,455 855,460 856,461 855,460 855,456 856,455 858,457 858,461 858,456 857,455" stroke="white" stroke-width="1" /><polyline fill="none" points="922,430 921,431 920,431 921,431" stroke="white" stroke-width="1" /><polyline fill="none" points="914,415 914,417" stroke="white" stroke-width="1" /><polyline fill="none" points="911,415 912,416 912,418 912,415" stroke="white" stroke-width="1" /><polyline fill="none" points="898,415 898,416 897,417 892,417 895,417 896,418 897,417 908,417 901,417 900,416 900,415 900,416 899,417 898,416" stroke="white" stroke-width="1" /><polyline fill="none" points="734,408 734,409 733,410 733,411 732,412 734,410" stroke="white" stroke-width="1" /><polyline fill="none" points="732,406 731,407 731,408 730,409 730,413 730,410 731,409 731,408 733,406" stroke="white" stroke-width="1" /><polyline fill="none" points="827,397 828,397" stroke="white" stroke-width="1" /><polyline fill="none" points="745,396 744,397 743,397 742,398 742,402 743,402 745,400 746,400 747,399 746,398 746,397" stroke="white" stroke-width="1" /><polyline fill="none" points="837,394 841,398 840,399 841,398 847,404 847,405 851,409 851,410 852,411 852,412 853,413 853,414 854,415 854,417 855,418 855,419 856,420 856,422 857,423 857,424 858,425 858,427 859,428 859,429 860,430 860,432 861,433 861,435 862,436 862,438 863,439 863,442 864,443 864,444 865,445 865,448 866,449 866,452 867,453 867,457 868,458 868,462 869,463 869,469 870,470 870,474 871,475 871,482 872,483 871,482 871,475 870,474 870,470 869,469 869,463 868,462 868,457 867,456 867,453 866,452 866,449 865,448 865,445 864,444 864,442 863,441 863,439 862,438 862,435 861,434 861,433 860,432 860,430 859,429 859,427 858,426 858,425 857,424 857,422 856,421 856,420 855,419 855,418 854,417 854,415 853,414 853,412 851,410 851,409 847,405 847,404" stroke="white" stroke-width="1" /><polyline fill="none" points="815,390 816,390 817,391 818,391 820,393 822,393 820,393 818,391 817,391 816,390" stroke="white" stroke-width="1" /><polyline fill="none" points="809,386 808,387 806,387 809,387 810,388 811,388 812,389 813,389 812,388 810,388 809,387" stroke="white" stroke-width="1" /><polyline fill="none" points="66,355 67,355" stroke="white" stroke-width="1" /><polyline fill="none" points="71,347 72,347" stroke="white" stroke-width="1" /><polyline fill="none" points="381,346 401,346" stroke="white" stroke-width="1" /><polyline fill="none" points="295,345 293,347 274,347 273,348 274,347 294,347 294,346" stroke="white" stroke-width="1" /><polyline fill="none" points="79,345 81,345" stroke="white" stroke-width="1" /><polyline fill="none" points="83,344 84,344" stroke="white" stroke-width="1" /><polyline fill="none" points="380,343 380,344 378,346 357,346 379,346 379,345 381,343" stroke="white" stroke-width="1" /><polyline fill="none" points="356,343 355,344 355,345 354,346 350,346 355,346 355,345 356,344" stroke="white" stroke-width="1" /><polyline fill="none" points="128,343 127,344 122,344 121,345 115,345 114,346 107,346 106,345 107,344 113,344 107,344 106,345 102,345 106,345 107,346 106,347 101,347 100,346 96,346 100,346 101,347 100,348 95,348 94,347 91,347 89,345 88,345 89,345 90,346 90,347 89,348 85,348 84,349 81,349 80,348 80,347 79,347 78,348 76,346 74,346 76,346 77,347 76,348 78,348 79,347 81,349 84,349 85,350 84,351 80,351 79,350 76,350 75,351 71,351 70,352 68,350 69,351 67,353 65,353 64,354 62,352 62,351 63,350 62,351 62,352 64,354 65,353 67,353 68,352 70,352 71,351 75,351 76,352 75,353 72,353 71,354 69,354 71,354 72,353 75,353 76,354 75,353 76,352 79,352 80,351 85,351 86,350 89,350 90,349 94,349 95,348 99,348 100,349 100,348 101,347 106,347 107,346 112,346 113,347 115,345 121,345 122,344 127,344 128,343 139,343" stroke="white" stroke-width="1" /><polyline fill="none" points="141,342 147,342 148,343 148,342" stroke="white" stroke-width="1" /><polyline fill="none" points="383,341 384,342 383,343 383,344 383,343 385,341 397,341" stroke="white" stroke-width="1" /><polyline fill="none" points="361,341 358,344 359,344 359,343 361,341 381,341" stroke="white" stroke-width="1" /><polyline fill="none" points="152,341 161,341" stroke="white" stroke-width="1" /><polyline fill="none" points="104,341 112,341" stroke="white" stroke-width="1" /><polyline fill="none" points="163,340 165,340 166,341 167,340 175,340" stroke="white" stroke-width="1" /><polyline fill="none" points="613,337 613,340" stroke="white" stroke-width="1" /><polyline fill="none" points="195,336 203,336" stroke="white" stroke-width="1" /><polyline fill="none" points="143,336 145,336 146,337 145,338 146,337 147,337 146,337 145,336" stroke="white" stroke-width="1" /><polyline fill="none" points="132,336 131,337 124,337 132,337 133,338 136,338 137,337 138,337 139,338 140,338 139,338 138,337 137,337 136,338 134,338" stroke="white" stroke-width="1" /><polyline fill="none" points="295,335 297,335" stroke="white" stroke-width="1" /><polyline fill="none" points="178,335 193,335" stroke="white" stroke-width="1" /><polyline fill="none" points="138,335 141,335" stroke="white" stroke-width="1" /><polyline fill="none" points="356,334 357,334" stroke="white" stroke-width="1" /><polyline fill="none" points="320,334 331,334" stroke="white" stroke-width="1" /><polyline fill="none" points="195,334 197,334" stroke="white" stroke-width="1" /><polyline fill="none" points="174,334 174,335" stroke="white" stroke-width="1" /><polyline fill="none" points="158,334 157,335 153,335 165,335 166,334 170,334 166,334 165,335 161,335 160,334 159,335" stroke="white" stroke-width="1" /><polyline fill="none" points="103,334 102,335 101,335 100,336 98,336 100,336 101,335 102,335 103,334 104,334 105,335 104,336 104,337 104,336 105,335 106,336 106,337 106,336 107,335 105,335 104,334" stroke="white" stroke-width="1" /><polyline fill="none" points="337,333 336,334 334,334 337,334" stroke="white" stroke-width="1" /><polyline fill="none" points="230,333 229,334 214,334 242,334 233,334 232,333 231,334" stroke="white" stroke-width="1" /><polyline fill="none" points="234,332 240,332" stroke="white" stroke-width="1" /><polyline fill="none" points="224,332 225,332" stroke="white" stroke-width="1" /><polyline fill="none" points="243,331 252,331 253,332 252,333 246,333 245,334 244,333 244,334 245,334 246,333 263,333 256,333 255,332 255,331 255,332 254,333 253,332 253,331" stroke="white" stroke-width="1" /><polyline fill="none" points="326,330 332,330 333,331 356,331 357,332 358,331 361,331 362,332 390,332 362,332 361,331 358,331 357,332 356,331 333,331 332,330" stroke="white" stroke-width="1" /><polyline fill="none" points="157,330 158,330" stroke="white" stroke-width="1" /><polyline fill="none" points="129,330 129,332 129,331 130,330 131,330 132,331 133,331 132,331 131,330" stroke="white" stroke-width="1" /><polyline fill="none" points="438,329 436,331 435,331 436,331 437,330 438,330" stroke="white" stroke-width="1" /><polyline fill="none" points="419,329 421,329" stroke="white" stroke-width="1" /><polyline fill="none" points="122,328 121,329 119,329 118,330 116,330 118,330 119,329 121,329 122,328 127,328" stroke="white" stroke-width="1" /><polyline fill="none" points="472,327 484,327 485,328 484,327" stroke="white" stroke-width="1" /><polyline fill="none" points="458,327 457,328" stroke="white" stroke-width="1" /><polyline fill="none" points="441,327 441,329 440,330 536,330 537,329 597,329 549,329 548,328 548,327 548,328 547,329 537,329 536,330 442,330 441,329 441,328 442,327" stroke="white" stroke-width="1" /><polyline fill="none" points="203,327 203,329 203,328 204,327 205,327 206,328 207,327 211,327 212,328 213,328 212,328 211,327 207,327 206,328 205,327" stroke="white" stroke-width="1" /><polyline fill="none" points="157,327 157,328" stroke="white" stroke-width="1" /><polyline fill="none" points="155,327 155,328 154,329 153,329 152,328 149,328 152,328 153,329 154,329 155,330" stroke="white" stroke-width="1" /><polyline fill="none" points="431,326 430,327 429,327 428,328 425,328 424,329 423,329 424,329 425,328 428,328 429,327 430,327 431,328 429,330 428,330 427,331 422,331 427,331 428,330 429,330 431,328 433,330 432,331 431,331 432,331 434,329 435,329 434,329 433,330 432,329 432,328 431,328 430,327" stroke="white" stroke-width="1" /><polyline fill="none" points="262,326 261,327 259,327 261,327" stroke="white" stroke-width="1" /><polyline fill="none" points="219,326 224,326 225,327 228,327 228,326 227,327 225,327 224,326" stroke="white" stroke-width="1" /><polyline fill="none" points="170,326 170,328 169,329 167,329 169,329 170,330 171,329 172,330 173,329 175,329 176,330 180,330 176,330 175,329 173,329 172,328 172,327 173,326 175,326 176,327 181,327 182,326 181,327 176,327 175,326 172,326 172,328 171,329 170,328" stroke="white" stroke-width="1" /><polyline fill="none" points="361,325 362,325 363,326 365,326 364,326 363,325" stroke="white" stroke-width="1" /><polyline fill="none" points="264,325 266,325" stroke="white" stroke-width="1" /><polyline fill="none" points="186,325 186,327 185,328 183,328 185,328 186,329 186,330 186,329 187,328 188,329 188,330 188,329 189,328 192,328 193,329 192,328 189,328 188,327 188,325 188,327 187,328 186,327" stroke="white" stroke-width="1" /><polyline fill="none" points="417,324 416,325 411,325 416,325 417,324 418,325 419,324" stroke="white" stroke-width="1" /><polyline fill="none" points="273,324 272,325 269,325 269,326 268,327 266,327 269,327 270,328 269,329 270,328 269,327 269,326 270,325 275,325 276,326 275,325 274,325" stroke="white" stroke-width="1" /><polyline fill="none" points="254,324 252,326 251,326 250,327 251,326 252,326 253,325 255,327 257,327 255,327 253,325 254,324 255,324 256,325 257,325 256,325 255,324" stroke="white" stroke-width="1" /><polyline fill="none" points="218,324 219,324" stroke="white" stroke-width="1" /><polyline fill="none" points="209,324 214,324 215,325 215,329 215,325 214,324" stroke="white" stroke-width="1" /><polyline fill="none" points="440,323 440,325 438,327 435,327 439,327 439,326 440,325" stroke="white" stroke-width="1" /><polyline fill="none" points="324,323 323,324 322,324 324,324 325,323 326,323 328,325 329,324 327,324 326,323" stroke="white" stroke-width="1" /><polyline fill="none" points="246,323 246,324 244,326 247,323" stroke="white" stroke-width="1" /><polyline fill="none" points="232,323 232,324 230,326 230,328 230,327 231,326 232,326 233,327 234,327 233,327 231,325 232,324" stroke="white" stroke-width="1" /><polyline fill="none" points="379,322 378,323" stroke="white" stroke-width="1" /><polyline fill="none" points="382,320 381,321" stroke="white" stroke-width="1" /><polyline fill="none" points="316,320 318,320 319,321 318,322 315,322 315,323 316,323 317,322 319,322 319,321 318,320" stroke="white" stroke-width="1" /><polyline fill="none" points="307,320 308,320 309,321 309,322 310,322 311,321 313,321 311,321 310,322 308,320" stroke="white" stroke-width="1" /><polyline fill="none" points="243,320 242,321 209,321 208,322 189,322 188,323 174,323 173,324 160,324 159,325 147,325 146,326 138,326 137,327 130,327 137,327 138,326 146,326 147,325 159,325 160,324 173,324 174,323 188,323 189,322 208,322 209,321 242,321 243,320 260,320 261,321 261,322 260,323 258,323 260,323 261,324 262,324 261,324 260,323 262,321 266,321 267,320 269,322 275,322 276,323 279,323 280,324 286,324 287,325 291,325 292,326 299,326 300,327 301,327 302,328 301,329 300,329 299,330 296,330 295,331 288,331 287,332 273,332 272,331 268,331 267,330 265,330 264,329 264,328 264,329 263,330 258,330 257,329 243,329 241,327 242,326 242,325 244,323 243,324 242,324 242,325 240,327 241,327 242,328 241,329 236,329 235,330 218,330 217,329 217,326 217,330 216,331 202,331 201,330 201,328 201,331 200,332 178,332 177,333 176,332 154,332 153,333 143,333 142,332 143,331 142,330 142,328 142,332 141,333 140,332 140,328 139,329 138,329 139,329 140,330 140,332 139,333 136,333 135,334 126,334 125,335 119,335 117,333 117,332 117,333 116,334 116,336 116,335 117,334 118,334 120,336 119,337 118,337 117,338 111,338 110,339 102,339 101,340 94,340 93,341 88,341 87,342 86,342 86,343 87,342 88,343 94,343 89,343 88,342 89,341 93,341 94,340 98,340 99,341 98,342 96,342 102,342 100,342 99,341 100,340 101,340 102,339 110,339 111,338 114,338 115,339 114,340 115,340 117,342 116,343 115,343 119,343 119,342 120,341 124,341 125,342 126,341 138,341 139,340 149,340 150,339 159,339 160,338 161,339 162,338 176,338 177,339 191,339 192,338 208,338 209,337 221,337 222,336 248,336 249,335 272,335 273,334 287,334 273,334 272,335 249,335 248,336 222,336 221,337 209,337 208,338 192,338 191,337 177,337 176,338 162,338 161,339 159,337 149,337 159,337 160,338 159,339 150,339 149,340 139,340 138,341 127,341 126,340 126,341 125,342 124,341 121,341 120,340 121,339 120,340 117,340 116,341 115,340 115,339 116,338 117,338 118,337 120,337 120,336 121,335 125,335 126,334 135,334 136,333 153,333 154,332 176,332 177,333 178,332 200,332 201,331 216,331 217,330 230,330 231,331 232,330 235,330 236,329 257,329 258,330 267,330 268,331 272,331 273,332 287,332 288,331 291,331 292,332 292,333 291,334 292,333 296,333 297,332 299,332 301,334 301,333 300,332 301,331 302,331 303,330 305,330 306,329 308,329 309,328 316,328 317,329 324,329 317,329 316,328 309,328 308,329 307,329 305,327 300,327 299,326 293,326 292,325 287,325 286,324 281,324 280,323 276,323 275,322 269,322 268,321 269,320 268,321 267,320 266,321 261,321 260,320" stroke="white" stroke-width="1" /><polyline fill="none" points="440,319 439,320 440,321" stroke="white" stroke-width="1" /><polyline fill="none" points="424,319 426,319 427,320 428,319 430,319 431,320 432,319 437,319 432,319 431,320 430,319 428,319 427,320 426,319" stroke="white" stroke-width="1" /><polyline fill="none" points="364,319 363,320 362,320 359,323 358,323 357,324 359,326 358,325 358,324 361,321 362,321 364,319 365,319 366,320 367,319 368,319 369,320 371,320 370,320 369,319 367,319 366,320 365,319" stroke="white" stroke-width="1" /><polyline fill="none" points="385,318 384,319" stroke="white" stroke-width="1" /><polyline fill="none" points="354,317 353,318 354,317 355,317" stroke="white" stroke-width="1" /><polyline fill="none" points="341,317 339,319 338,319 337,320 336,320 335,321 334,321 332,323 331,323 330,322 329,322 330,322 331,323 332,323 333,322 334,322 336,320 337,320 338,319 339,319 341,317 342,317" stroke="white" stroke-width="1" /><polyline fill="none" points="313,317 314,318 313,319 310,319 309,318 310,319 313,319 314,318 314,317" stroke="white" stroke-width="1" /><polyline fill="none" points="346,316 343,319 342,319 340,321 339,321 338,322 337,322 338,322 339,321 340,321 341,320 342,320 344,318 345,318 347,316 348,316 349,317 349,318 348,319 347,319 345,321 344,321 343,322 342,322 342,323 341,324 339,324 341,324 342,325 341,326 338,326 337,325 335,325 334,324 333,325 332,325 333,325 334,324 335,325 337,325 338,326 341,326 342,325 341,324 344,321 345,321 347,319 348,319 349,318 350,318 349,317 349,316" stroke="white" stroke-width="1" /><polyline fill="none" points="333,316 332,317 331,317 329,319 328,319 327,320 326,320 325,321 322,321 326,321 328,319 329,319 331,317 332,317 333,316 334,316" stroke="white" stroke-width="1" /><polyline fill="none" points="673,315 672,316 669,316 668,317 665,317 668,317 669,316 672,316 673,315 676,315" stroke="white" stroke-width="1" /><polyline fill="none" points="391,314 390,315 389,315 387,317 389,315 390,315" stroke="white" stroke-width="1" /><polyline fill="none" points="332,314 331,315 330,315 328,317 326,317 325,316 326,317 324,319 323,319 322,318 323,317 322,318 321,318 320,319 321,318 322,318 323,319 324,319 325,318 326,318 327,317 328,317 330,315 331,315 332,314 335,314" stroke="white" stroke-width="1" /><polyline fill="none" points="698,313 699,313" stroke="white" stroke-width="1" /><polyline fill="none" points="412,313 411,314 412,313 413,313" stroke="white" stroke-width="1" /><polyline fill="none" points="394,312 393,313" stroke="white" stroke-width="1" /><polyline fill="none" points="329,312 328,313 327,313 328,313 329,312 330,312" stroke="white" stroke-width="1" /><polyline fill="none" points="397,310 396,311" stroke="white" stroke-width="1" /><polyline fill="none" points="382,309 384,309" stroke="white" stroke-width="1" /><polyline fill="none" points="379,309 378,310 377,310 374,313 373,313 371,315 370,315 368,317 367,317 368,317 369,316 371,318 372,318 373,317 374,318 377,318 374,318 373,317 372,318 371,318 369,316 370,315 371,315 373,313 374,313 376,311 377,311 379,309 380,309" stroke="white" stroke-width="1" /><polyline fill="none" points="367,308 367,309 366,310 368,308 370,308" stroke="white" stroke-width="1" /><polyline fill="none" points="357,308 356,309 355,309 354,310 353,310 352,311 351,311 349,313 348,313 347,314 344,314 343,315 338,315 335,318 334,318 333,319 332,319 331,320 332,319 333,319 334,318 335,318 336,317 337,317 339,315 343,315 344,314 348,314 350,312 351,312 353,310 354,310 355,309 356,309" stroke="white" stroke-width="1" /><polyline fill="none" points="336,308 335,309 334,309 333,310 332,310 333,310 334,311 333,312 332,312 333,312 334,311 335,311 336,310 337,310 338,311 339,311 340,310 339,311 338,311 337,310 338,309 337,310 336,310 335,309" stroke="white" stroke-width="1" /><polyline fill="none" points="362,307 360,309 359,309 357,311 356,311 355,312 354,312 353,313 354,312 355,312 356,311 357,311 359,309 360,309 362,307 364,307 365,308 363,310 362,310 361,311 360,311 358,313 357,313 356,314 355,314 354,315 352,315 355,315 357,313 358,313 360,311 361,311 362,310 363,310 365,308 365,307" stroke="white" stroke-width="1" /><polyline fill="none" points="428,306 435,306 437,308 435,306" stroke="white" stroke-width="1" /><polyline fill="none" points="357,305 356,306 355,306 354,307 353,307 352,306 353,307 351,309 350,309 349,310 348,310 347,311 346,311 345,310 346,309 345,310 344,310 343,311 342,311 340,313 338,313 340,313 341,312 342,312 344,310 345,310 346,311 345,312 346,312 347,311 348,311 350,309 351,309 353,307 355,307 357,305 358,305" stroke="white" stroke-width="1" /><polyline fill="none" points="406,304 405,305" stroke="white" stroke-width="1" /><polyline fill="none" points="368,304 367,305 367,306 371,306 372,307 374,307 372,307 371,306 371,305 372,304 371,305 370,305 369,306 368,306 367,305" stroke="white" stroke-width="1" /><polyline fill="none" points="366,303 364,305 362,305 364,305" stroke="white" stroke-width="1" /><polyline fill="none" points="345,303 343,305 342,305 341,306 340,306 339,307 338,307 339,307 340,308 339,307 340,306 341,306 343,308 342,309 343,308 344,308 343,308 341,306 342,305 343,305 345,303 348,303" stroke="white" stroke-width="1" /><polyline fill="none" points="409,302 408,303" stroke="white" stroke-width="1" /><polyline fill="none" points="355,302 356,303 355,304 356,303 358,303 359,302 358,303 356,303" stroke="white" stroke-width="1" /><polyline fill="none" points="350,302 352,302 353,303 352,304 350,304 348,306 347,306 346,305 347,306 346,307 347,306 348,306 349,305 350,305 351,304 352,304 353,303 352,302" stroke="white" stroke-width="1" /><polyline fill="none" points="692,300 695,303" stroke="white" stroke-width="1" /><polyline fill="none" points="431,300 430,301 429,301 429,302" stroke="white" stroke-width="1" /><polyline fill="none" points="375,300 374,301 373,301 372,302 373,301 374,301" stroke="white" stroke-width="1" /><polyline fill="none" points="383,299 385,299" stroke="white" stroke-width="1" /><polyline fill="none" points="417,297 416,298 415,298 413,300 412,300 411,301 412,300 413,300 415,298 416,298" stroke="white" stroke-width="1" /><polyline fill="none" points="380,297 379,298 378,298 377,299 378,298 379,298 380,297 381,298 381,299 381,298" stroke="white" stroke-width="1" /><polyline fill="none" points="373,296 371,298 373,296 376,296" stroke="white" stroke-width="1" /><polyline fill="none" points="420,295 419,296" stroke="white" stroke-width="1" /><polyline fill="none" points="368,295 367,296 366,296 365,297 364,297 363,296 364,297 362,299 361,299 360,298 361,297 360,296 361,297 360,298 359,298 358,297 357,297 355,299 354,299 353,300 352,300 353,300 354,299 355,299 356,298 357,298 359,300 360,300 361,301 360,300 361,299 362,299 364,301 362,303 361,303 362,303 363,302 364,302 365,301 364,301 362,299 364,297 365,297 366,296 367,296 368,297 367,298 368,299 367,300 368,299 369,299 368,299 367,298 368,297 369,297 368,297 367,296 368,295 370,295" stroke="white" stroke-width="1" /><polyline fill="none" points="423,293 422,294" stroke="white" stroke-width="1" /><polyline fill="none" points="680,291 681,291 682,292 681,291" stroke="white" stroke-width="1" /><polyline fill="none" points="428,290 427,291" stroke="white" stroke-width="1" /><polyline fill="none" points="386,290 387,291 386,292 387,293 386,294 387,295 385,297 383,297 385,297 387,295 388,295 389,294 390,294 391,293 392,293 393,292 394,293 393,292 392,293 391,293 390,294 389,294 388,293 389,292 388,293 387,293 386,292 387,291" stroke="white" stroke-width="1" /><polyline fill="none" points="395,288 393,290 395,288 397,288" stroke="white" stroke-width="1" /><polyline fill="none" points="676,287 677,288" stroke="white" stroke-width="1" /><polyline fill="none" points="433,287 432,288 431,288 430,289 431,288 432,288" stroke="white" stroke-width="1" /><polyline fill="none" points="390,287 388,289 390,287 393,287" stroke="white" stroke-width="1" /><polyline fill="none" points="422,285 423,285 424,286 426,286 424,286 423,285" stroke="white" stroke-width="1" /><polyline fill="none" points="454,284 450,288 448,288 448,289 447,290 446,290 442,294 441,294 440,295 441,296 457,296 457,295 462,290 462,289 458,293 458,294 456,296 441,296 440,295 441,294 442,294 443,293 444,293 449,288 450,288 451,287 452,288 457,288 458,287 464,287 458,287 457,288 452,288 451,287 453,285 454,286 456,286 454,286 453,285" stroke="white" stroke-width="1" /><polyline fill="none" points="438,284 437,285" stroke="white" stroke-width="1" /><polyline fill="none" points="392,283 393,283 394,284 393,285 391,285 393,285 394,284 393,283" stroke="white" stroke-width="1" /><polyline fill="none" points="471,280 468,283 468,284 467,285 458,285 467,285 468,284 468,283" stroke="white" stroke-width="1" /><polyline fill="none" points="439,277 441,277" stroke="white" stroke-width="1" /><polyline fill="none" points="399,275 400,276 401,276 402,277 403,277 404,278 406,278 407,279 409,279 407,279 406,278 404,278 403,277 402,277 401,276 400,276" stroke="white" stroke-width="1" /><polyline fill="none" points="402,274 403,275 404,275 405,276 407,276 408,277 410,277 411,278 414,278 415,279 417,279 418,278 417,278 416,279 415,279 414,278 411,278 410,277 408,277 407,276 405,276 404,275 403,275" stroke="white" stroke-width="1" /><polyline fill="none" points="470,272 469,273 467,273 469,273 470,272 472,272" stroke="white" stroke-width="1" /><polyline fill="none" points="443,272 442,273" stroke="white" stroke-width="1" /><polyline fill="none" points="473,270 474,271 477,271 474,271" stroke="white" stroke-width="1" /><polyline fill="none" points="423,270 424,270 425,271 427,271 428,272 429,272 428,272 427,271 426,271 425,270" stroke="white" stroke-width="1" /><polyline fill="none" points="478,269 479,270 484,270 485,269 494,269 485,269 484,270 479,270" stroke="white" stroke-width="1" /><polyline fill="none" points="505,268 506,268" stroke="white" stroke-width="1" /><polyline fill="none" points="624,267 632,267" stroke="white" stroke-width="1" /><polyline fill="none" points="491,267 495,267 496,268 503,268 496,268 495,267" stroke="white" stroke-width="1" /><polyline fill="none" points="450,267 451,267 452,268 452,267" stroke="white" stroke-width="1" /><polyline fill="none" points="589,266 590,266" stroke="white" stroke-width="1" /><polyline fill="none" points="501,266 508,266 509,267 523,267 509,267 508,266" stroke="white" stroke-width="1" /><polyline fill="none" points="518,265 530,265 531,266 557,266 531,266 530,265" stroke="white" stroke-width="1" /><polyline fill="none" points="453,265 454,266 454,270 453,271 452,270 451,271 449,271 448,270 449,271 448,272 447,272 446,273 447,272 448,272 449,271 453,271 454,270 455,270 454,269 454,265" stroke="white" stroke-width="1" /><polyline fill="none" points="724,264 725,264" stroke="white" stroke-width="1" /><polyline fill="none" points="721,264 720,265 720,267 721,267 720,266 720,265" stroke="white" stroke-width="1" /><polyline fill="none" points="425,264 424,265 423,265 424,265 425,264 428,264 429,265 430,265 431,266 432,266 434,268 436,268 435,268 434,267 433,267 432,266 431,266 430,265 431,264 433,264 434,265 435,265 436,266 435,265 434,265 433,264 431,264 430,265 429,265 428,264" stroke="white" stroke-width="1" /><polyline fill="none" points="650,263 649,264 650,265 655,265 656,266 655,267 654,267 655,267 656,268 655,267 656,266 656,265 650,265 649,264 650,263 654,263" stroke="white" stroke-width="1" /><polyline fill="none" points="437,263 438,264 439,264 440,265 441,265 443,267 441,269 440,269 438,267 438,268 439,269 437,271 436,271 435,272 434,272 432,274 430,274 429,275 428,274 427,274 426,273 425,273 426,273 427,274 428,274 429,275 428,276 427,276 426,277 425,277 424,278 423,278 421,280 420,280 419,281 418,281 417,282 416,281 414,281 413,280 411,280 413,280 414,281 416,281 417,282 416,283 415,283 414,284 413,284 411,286 410,286 409,287 408,287 406,289 407,288 408,288 410,286 412,286 413,287 412,288 411,288 409,290 408,290 407,291 406,291 404,293 403,293 401,295 400,295 401,295 402,296 410,296 402,296 401,295 402,294 403,294 405,292 406,292 408,290 409,290 410,289 411,289 413,287 414,287 415,288 416,288 417,287 418,288 420,288 421,287 422,287 423,288 422,287 421,287 420,286 419,286 418,287 417,287 416,288 415,288 414,287 416,285 417,285 418,284 419,284 421,282 422,282 423,281 424,281 426,279 427,279 428,280 429,280 430,279 436,279 429,279 428,280 427,279 426,279 425,278 426,277 427,277 430,274 432,274 433,275 432,276 431,276 430,277 431,276 432,276 433,275 435,275 436,274 437,274 438,273 439,274 440,273 440,272 442,270 445,270 447,268 446,268 444,270 442,270 441,269 442,268 443,268 444,267 444,266 443,267 441,265 440,265 439,264 438,264" stroke="white" stroke-width="1" /><polyline fill="none" points="683,262 682,263" stroke="white" stroke-width="1" /><polyline fill="none" points="433,261 434,261 435,262 434,261" stroke="white" stroke-width="1" /><polyline fill="none" points="710,260 711,260 712,261 712,262 713,263 714,263 715,264 715,265 716,266 718,266 717,266 715,264 715,263 714,263 711,260" stroke="white" stroke-width="1" /><polyline fill="none" points="676,259 675,260 669,260 668,261 662,261 661,262 656,262 661,262 662,261 668,261 669,260 675,260 676,259 679,259" stroke="white" stroke-width="1" /><polyline fill="none" points="612,258 612,259 613,258 614,259 622,259 614,259 613,258" stroke="white" stroke-width="1" /><polyline fill="none" points="480,257 480,258 481,259 481,260 481,259 480,258" stroke="white" stroke-width="1" /><polyline fill="none" points="682,256 682,259 683,260 685,260 686,261 687,261 688,260 691,260 688,260 687,261 686,261 684,259 684,256 684,259 683,260 682,259" stroke="white" stroke-width="1" /><polyline fill="none" points="448,256 447,257 446,257 447,257 448,256 449,256" stroke="white" stroke-width="1" /><polyline fill="none" points="647,255 646,256 646,257 645,258 643,258 642,257 641,257 642,257 643,258 645,258 646,257 646,256" stroke="white" stroke-width="1" /><polyline fill="none" points="613,255 613,256" stroke="white" stroke-width="1" /><polyline fill="none" points="667,254 667,258 666,259 667,258 667,257 668,256 671,256 668,256 667,255" stroke="white" stroke-width="1" /><polyline fill="none" points="665,254 665,257" stroke="white" stroke-width="1" /><polyline fill="none" points="515,254 515,255" stroke="white" stroke-width="1" /><polyline fill="none" points="498,254 497,255 495,255 496,255 498,257 497,258 495,258 497,258 498,259 498,260 498,257 499,256 500,257 500,261 499,262 500,261 501,261 500,260 500,257 499,256 499,255" stroke="white" stroke-width="1" /><polyline fill="none" points="630,252 631,253 631,255 629,257 628,256 628,255 629,254 628,255 628,256 627,257 626,257 625,256 622,256 625,256 626,257 626,258 624,260 626,258 627,259 627,260 628,259 629,260 638,260 639,261 638,262 639,261 640,261 641,262 640,263 641,262 644,262 644,261 645,260 646,260 647,261 648,261 649,260 650,261 651,260 655,260 656,259 664,259 656,259 655,260 651,260 650,261 649,260 648,261 647,261 646,260 649,257 655,257 650,257 649,256 650,255 656,255 651,255 650,254 650,253 650,254 649,255 649,256 648,257 648,258 646,260 644,260 644,261 643,262 641,262 640,261 641,260 642,260 641,260 640,261 639,261 638,260 629,260 628,259 629,258 629,257 630,256 635,256 632,256 631,255 631,254 632,253 633,254 641,254 633,254 632,253 632,252 631,253" stroke="white" stroke-width="1" /><polyline fill="none" points="516,252 517,253 517,256 516,257 515,257 516,258 515,259 513,259 515,259 516,260 516,257 517,256 518,257 518,260 518,257 517,256 517,253" stroke="white" stroke-width="1" /><polyline fill="none" points="614,251 614,253 616,253 615,253 614,252" stroke="white" stroke-width="1" /><polyline fill="none" points="575,251 575,256 576,255 592,255 593,256 593,259 593,256 594,255 595,256 595,259 595,256 596,255 609,255 610,256 610,257 610,256 611,255 611,254 612,253 612,251 612,253 611,254 610,253 605,253 610,253 611,254 611,255 610,256 609,255 596,255 595,254 595,251 595,254 594,255 593,254 593,251 593,254 592,255 576,255 575,254" stroke="white" stroke-width="1" /><polyline fill="none" points="573,251 573,254 572,255 557,255 572,255 573,256 573,259" stroke="white" stroke-width="1" /><polyline fill="none" points="553,251 553,252 552,253 544,253 552,253 553,254 553,259 555,259 555,254 556,253 562,253 556,253 555,252 555,251 555,252 554,253 553,252" stroke="white" stroke-width="1" /><polyline fill="none" points="535,251 535,253 534,254 533,253 533,252 533,253 534,254 534,255 533,256 522,256 533,256 534,257 534,258 533,259 532,259 533,259 534,260 534,259 535,258 536,259 551,259 537,259 536,258 536,254 537,253 538,253 537,253 536,254 535,253" stroke="white" stroke-width="1" /><polyline fill="none" points="471,251 472,251" stroke="white" stroke-width="1" /><polyline fill="none" points="468,251 469,251" stroke="white" stroke-width="1" /><polyline fill="none" points="689,250 692,250" stroke="white" stroke-width="1" /><polyline fill="none" points="475,250 477,250" stroke="white" stroke-width="1" /><polyline fill="none" points="668,248 675,248" stroke="white" stroke-width="1" /><polyline fill="none" points="486,248 493,248" stroke="white" stroke-width="1" /><polyline fill="none" points="495,247 502,247" stroke="white" stroke-width="1" /><polyline fill="none" points="642,246 646,246 647,247 646,248 633,248 649,248 650,249 662,249 650,249 649,248 649,247 648,246" stroke="white" stroke-width="1" /><polyline fill="none" points="506,246 510,246" stroke="white" stroke-width="1" /><polyline fill="none" points="626,245 630,245" stroke="white" stroke-width="1" /><polyline fill="none" points="528,245 529,245" stroke="white" stroke-width="1" /><polyline fill="none" points="600,244 608,244" stroke="white" stroke-width="1" /><polyline fill="none" points="569,244 570,245 569,246 551,246 550,247 528,247 527,248 512,248 511,249 503,249 502,250 493,250 492,251 486,251 485,252 479,252 478,253 475,253 474,254 471,254 470,255 467,255 466,256 463,256 462,257 459,257 458,258 456,258 455,259 452,259 451,260 448,260 446,262 445,261 444,261 443,260 442,260 441,259 440,259 439,258 434,258 433,259 431,259 430,260 429,260 428,261 427,261 426,262 424,262 423,263 421,263 420,264 419,264 418,265 417,265 416,266 414,266 413,267 412,267 411,268 409,268 408,269 407,269 406,270 404,270 403,271 402,271 401,272 400,272 399,273 398,273 397,274 395,274 394,275 393,275 392,276 391,276 390,277 388,277 387,278 386,278 385,279 384,279 383,280 382,280 381,281 380,281 379,282 377,282 376,283 375,283 374,284 372,284 371,285 370,285 369,286 368,286 367,287 366,287 365,288 363,288 362,289 361,289 359,291 357,291 356,292 355,292 354,293 353,293 352,294 350,294 348,296 346,296 345,297 344,297 343,298 342,298 341,299 340,299 339,300 338,300 337,301 336,301 335,302 333,302 332,303 331,303 330,304 329,304 328,305 327,305 325,307 323,307 321,309 319,309 318,310 317,310 316,311 315,311 314,312 313,312 312,313 311,313 310,314 309,314 308,315 307,315 306,316 307,315 309,315 310,316 311,316 310,316 309,315 311,313 313,313 314,314 313,313 314,312 315,312 316,313 315,312 317,310 318,310 319,309 321,309 322,308 323,308 324,307 325,307 326,306 327,306 328,305 329,305 330,304 331,304 332,303 333,303 334,302 336,302 337,303 336,304 337,303 338,304 339,304 340,303 341,303 342,302 343,302 341,302 339,304 338,304 336,302 338,300 340,300 341,299 342,299 343,298 344,298 345,297 346,297 347,296 348,296 349,295 350,295 351,294 352,294 353,293 355,293 356,294 354,296 353,296 352,297 351,297 350,298 348,298 347,299 348,299 349,298 350,298 351,297 353,297 356,294 358,294 359,293 362,293 363,294 366,294 363,294 362,293 359,293 358,294 356,294 355,293 356,292 357,292 358,291 359,291 360,290 361,290 362,289 363,289 364,288 366,288 367,289 364,292 367,292 368,293 371,293 372,292 371,291 372,290 373,290 374,289 375,289 376,288 377,288 378,289 378,290 377,291 376,291 375,292 376,293 375,294 373,294 375,294 376,293 377,293 378,292 379,292 380,293 379,292 378,292 377,291 378,290 378,289 377,288 378,287 379,287 381,285 383,285 384,286 384,287 383,288 382,287 382,288 381,289 380,289 381,289 383,291 382,292 383,291 384,291 383,291 381,289 382,288 383,288 384,289 383,288 385,286 388,286 385,286 384,285 381,285 380,284 378,284 377,283 378,282 379,282 380,281 381,281 382,280 383,280 384,279 386,279 387,280 386,281 385,281 384,282 384,283 384,282 385,281 386,281 387,280 389,280 390,279 391,279 392,278 394,278 395,277 394,277 393,276 394,275 395,275 396,274 397,274 398,273 399,273 400,272 402,272 403,271 404,271 405,270 406,270 407,269 409,269 410,270 409,271 408,271 407,272 406,272 405,273 404,273 405,273 406,272 408,272 409,271 410,271 411,270 410,270 409,269 410,268 411,268 412,267 414,267 415,268 414,269 413,269 414,269 415,268 416,268 418,270 420,270 421,271 420,270 419,270 417,268 415,268 414,267 415,266 416,266 417,265 419,265 420,266 419,267 420,268 419,267 420,266 421,266 420,266 419,265 421,263 423,263 424,262 426,262 427,261 429,261 430,262 431,262 430,262 429,261 430,260 431,260 432,259 434,259 435,258 439,258 440,259 441,259 442,260 443,260 444,261 445,261 446,262 445,263 443,263 442,262 441,262 440,261 439,261 438,260 436,260 438,260 440,262 442,262 443,263 444,263 446,265 448,265 451,262 452,263 453,263 455,261 457,261 458,260 460,260 461,259 465,259 467,261 467,262 466,263 464,261 465,262 465,263 466,264 466,265 467,266 467,265 468,264 469,265 468,264 468,263 467,262 467,261 465,259 466,258 468,258 469,257 472,257 473,256 476,256 477,255 481,255 482,254 487,254 488,253 493,253 494,252 504,252 505,251 512,251 513,250 528,250 529,249 553,249 554,248 604,248 605,249 631,249 632,250 648,250 632,250 631,249 605,249 604,248 554,248 553,249 529,249 528,250 513,250 512,251 505,251 504,252 494,252 493,253 488,253 487,254 482,254 481,255 477,255 476,256 473,256 472,257 469,257 468,258 465,258 464,259 461,259 460,260 458,260 457,261 455,261 454,262 453,262 452,263 451,262 450,262 449,263 449,264 448,265 447,265 445,263 447,261 448,261 449,260 451,260 452,259 455,259 456,258 459,258 460,257 462,257 463,256 466,256 467,255 470,255 471,254 474,254 475,253 478,253 479,252 485,252 486,251 492,251 493,250 502,250 503,249 511,249 512,248 527,248 528,247 550,247 551,246 607,246 608,247 631,247 608,247 607,246 571,246" stroke="white" stroke-width="1" /><polyline fill="none" points="538,244 549,244" stroke="white" stroke-width="1" /><polyline fill="none" points="712,239 711,240 710,240 709,241 708,241 706,243 705,243 703,245 699,245 698,246 697,246 696,247 694,247 693,248 688,248 687,247 679,247 678,246 669,246 668,245 656,245 655,244 642,244 641,243 627,243 626,242 602,242 601,241 551,241 550,242 525,242 524,243 512,243 511,244 500,244 499,245 491,245 490,246 484,246 483,247 477,247 476,248 472,248 471,249 466,249 465,250 462,250 461,251 457,251 456,252 454,252 453,253 450,253 449,254 447,254 446,255 443,255 442,256 439,256 442,256 443,255 446,255 447,254 449,254 450,253 453,253 456,256 457,256 456,255 455,255 453,253 454,252 456,252 457,251 461,251 462,250 465,250 466,249 471,249 472,248 476,248 477,247 483,247 484,246 490,246 491,245 499,245 500,244 511,244 512,243 524,243 525,242 550,242 551,241 601,241 602,242 626,242 627,243 641,243 642,244 655,244 656,245 668,245 669,246 678,246 679,247 687,247 688,248 694,248 696,250 701,250 702,251 705,251 706,252 706,253 705,254 701,254 700,253 693,253 692,252 685,252 684,251 683,251 682,250 683,249 684,249 679,249 681,249 682,250 681,251 675,251 674,250 664,250 674,250 675,251 684,251 685,252 692,252 693,253 700,253 701,254 707,254 708,255 712,255 713,256 712,257 707,257 706,256 700,256 699,255 692,255 691,254 684,254 683,253 674,253 673,252 663,252 662,251 650,251 662,251 663,252 673,252 674,253 683,253 684,254 691,254 692,255 699,255 700,256 706,256 707,257 712,257 713,258 717,258 718,259 720,259 721,260 723,260 724,261 725,261 726,262 727,262 729,264 730,264 731,265 732,265 734,267 735,267 737,269 738,269 739,270 738,271 736,271 735,270 734,270 732,268 731,268 730,267 729,267 728,266 727,267 726,267 725,268 723,268 723,269 722,270 721,269 718,269 717,270 710,270 709,271 706,271 704,273 702,271 698,271 697,270 698,269 699,269 700,268 701,269 706,269 707,268 714,268 707,268 706,269 703,269 702,268 705,265 712,265 705,265 703,267 700,267 699,266 699,265 700,264 701,265 702,264 703,264 702,264 701,263 700,264 698,262 698,259 699,258 700,259 700,260 701,259 704,259 700,259 699,258 698,259 697,258 697,259 698,260 697,261 693,261 697,261 699,263 697,265 693,265 692,266 682,266 681,265 680,265 680,266 679,267 678,267 677,266 678,265 678,264 679,263 678,262 673,262 672,263 668,263 667,264 658,264 667,264 668,263 672,263 673,262 678,262 679,263 677,265 671,265 670,266 661,266 659,268 660,269 661,269 663,271 662,272 663,271 673,271 674,272 680,272 674,272 673,271 663,271 661,269 662,268 672,268 673,269 677,269 678,270 679,270 677,268 678,267 679,267 680,268 679,267 681,265 682,266 692,266 693,265 697,265 698,264 699,265 699,266 698,267 694,267 693,268 684,268 683,269 682,269 681,270 682,271 682,272 683,272 684,273 683,274 673,274 672,273 670,273 672,273 673,274 682,274 684,276 685,276 686,277 685,278 678,278 677,277 676,277 675,278 674,278 673,277 672,277 671,276 671,275 670,275 671,276 669,278 668,278 667,277 666,277 663,274 664,273 665,273 664,273 663,274 659,274 662,274 665,277 666,277 667,278 668,278 672,282 673,282 676,285 677,285 681,289 682,289 685,292 685,293 684,294 685,294 689,298 685,294 685,293 686,292 692,298 693,298 698,303 699,303 704,308 704,309 703,310 701,310 700,309 699,309 698,308 698,306 697,305 698,306 698,308 699,309 700,309 701,310 700,311 696,311 695,312 692,312 691,313 685,313 684,314 683,314 682,313 681,314 678,314 681,314 682,313 683,314 684,314 685,313 691,313 692,312 696,312 697,311 701,311 702,310 706,310 707,311 706,312 703,312 718,312 719,313 718,314 701,314 700,315 691,315 690,316 683,316 682,317 676,317 675,318 670,318 669,319 664,319 669,319 670,318 675,318 676,317 682,317 683,316 684,316 685,317 685,318 684,319 682,319 681,320 676,320 675,321 670,321 669,322 665,322 665,325 665,323 666,322 669,322 670,321 675,321 676,320 681,320 682,319 685,319 686,320 686,323 685,324 680,324 679,325 675,325 674,326 667,326 666,327 664,327 663,326 663,323 659,323 658,324 654,324 653,325 649,325 648,326 644,326 643,327 638,327 637,328 634,328 633,329 630,329 629,330 625,330 624,331 621,331 621,334 620,335 619,334 619,331 618,332 616,332 618,332 619,333 619,334 620,335 620,337 619,338 617,338 619,338 620,339 620,340 621,341 621,343 620,344 618,344 620,344 621,345 620,346 618,346 620,346 622,348 622,351 621,352 619,352 621,352 622,353 621,354 619,354 621,354 622,355 622,358 621,359 619,359 617,357 617,348 616,347 616,342 615,341 615,337 616,336 618,336 615,336 614,335 614,331 616,329 620,329 621,328 624,328 625,327 628,327 629,326 633,326 634,325 637,325 638,324 642,324 643,323 647,323 648,322 651,322 652,321 657,321 658,320 662,320 658,320 657,321 652,321 651,322 648,322 647,323 643,323 642,324 638,324 637,325 634,325 633,326 629,326 628,327 625,327 624,328 621,328 620,329 616,329 615,330 613,330 614,331 614,335 615,336 615,341 614,342 614,345 613,346 612,345 612,344 611,343 611,337 609,335 610,334 610,333 609,332 609,333 608,334 607,333 607,332 607,333 606,334 605,333 599,333 605,333 607,335 606,336 606,337 605,338 604,337 604,335 602,337 600,337 599,336 597,336 596,335 597,334 597,333 597,334 596,335 595,334 593,336 585,336 584,335 584,334 584,335 583,336 582,335 582,334 582,335 581,336 574,336 573,337 572,337 570,335 571,334 575,334 569,334 568,335 567,334 566,334 567,335 568,335 569,334 572,337 571,338 570,338 569,339 567,339 566,340 567,341 565,343 563,343 562,342 563,341 564,341 563,340 561,340 561,342 562,342 563,343 562,344 560,344 559,343 558,343 557,342 559,340 559,339 558,338 559,337 560,337 561,338 563,338 564,337 568,337 564,337 563,338 561,338 560,337 559,337 558,336 556,336 555,337 553,337 552,336 551,336 550,335 546,335 545,334 544,334 544,335 543,336 542,335 517,335 516,334 515,335 514,334 513,335 484,335 483,334 482,335 472,335 481,335 482,336 482,337 481,338 467,338 466,339 452,339 451,338 451,337 452,336 460,336 451,336 450,335 449,336 436,336 448,336 449,337 449,338 448,339 426,339 447,339 448,340 447,341 427,341 446,341 447,342 447,344 445,346 424,346 446,346 446,345 447,344 448,345 448,347 447,348 421,348 444,348 445,349 445,350 444,351 444,353 443,354 412,354 411,353 411,352 412,351 411,352 410,351 410,350 412,348 413,349 414,348 416,348 417,347 419,347 421,345 422,345 424,343 424,342 425,341 424,340 424,335 426,333 427,333 428,334 435,334 436,333 473,333 474,332 544,332 545,331 601,331 602,330 610,330 612,332 612,335 612,332 611,331 611,330 602,330 601,331 545,331 544,332 474,332 473,333 436,333 435,334 428,334 427,333 425,333 424,334 423,333 421,333 420,332 420,331 418,331 417,330 416,330 415,329 414,329 413,328 414,327 416,327 417,328 418,327 419,327 420,326 426,326 427,325 428,325 429,324 432,324 433,325 434,325 435,324 437,324 435,324 434,325 433,324 429,324 428,325 427,325 426,324 424,324 423,323 422,324 421,324 426,324 427,325 426,326 420,326 419,327 418,327 417,328 416,327 414,327 413,328 412,328 411,327 409,327 408,328 407,327 407,326 408,325 408,324 405,321 405,319 406,318 410,318 411,319 410,320 407,320 419,320 415,320 414,319 415,318 416,318 417,317 418,318 420,318 421,317 422,318 422,319 422,318 423,317 440,317 421,317 420,318 418,318 417,317 416,318 407,318 406,317 405,318 404,317 404,316 405,315 405,314 405,315 404,316 402,314 404,312 406,312 409,309 410,309 412,307 413,307 415,305 416,305 418,303 419,303 421,301 422,301 424,299 425,299 426,298 427,298 429,296 430,296 432,294 433,294 434,293 435,293 437,291 438,291 440,289 441,289 442,288 443,288 444,287 445,287 446,288 445,287 447,285 448,285 449,284 450,284 452,282 453,282 455,280 458,280 459,279 460,279 461,278 462,278 463,277 464,277 465,276 467,276 468,275 471,275 472,274 478,274 479,273 483,273 484,272 492,272 493,271 504,271 505,270 520,270 521,269 583,269 584,268 593,268 594,269 594,270 595,271 595,273 594,274 593,273 592,273 591,272 591,271 591,272 590,273 589,272 589,271 589,272 588,273 576,273 575,272 575,271 575,272 574,273 573,272 573,271 573,272 572,273 555,273 554,272 554,271 554,272 553,273 552,272 552,271 552,272 551,273 536,273 551,273 552,274 551,275 535,275 534,274 534,272 533,273 532,272 532,273 531,274 516,274 515,273 514,274 513,273 513,272 513,273 512,274 501,274 511,274 512,275 511,276 502,276 501,277 496,277 495,276 494,277 493,277 492,276 494,274 494,273 494,274 493,275 485,275 491,275 492,276 491,277 482,277 481,278 478,278 477,277 476,278 468,278 467,279 466,279 467,279 468,278 474,278 475,279 470,284 470,285 481,285 471,285 470,284 471,283 472,283 473,282 473,281 477,277 478,278 481,278 482,277 492,277 493,278 492,279 492,280 490,282 490,283 488,285 487,284 487,283 488,282 488,281 490,279 488,281 488,282 487,283 487,284 488,285 487,286 486,286 484,284 483,284 484,284 485,285 485,286 484,287 483,286 482,287 467,287 464,290 464,291 460,295 460,296 470,296 471,295 476,295 477,296 476,297 472,297 471,298 455,298 456,299 450,305 457,298 471,298 472,297 475,297 476,298 475,299 475,300 472,303 472,304 469,307 448,307 470,307 472,305 474,307 484,307 485,306 494,306 495,307 494,308 488,308 495,308 495,307 496,306 496,305 497,304 497,303 498,302 498,301 500,299 501,300 501,301 500,302 500,303 499,304 499,305 498,306 498,307 497,308 497,309 496,310 496,311 495,312 495,313 494,314 494,315 494,314 495,313 495,312 496,311 496,310 498,308 520,308 521,309 521,310 520,311 520,314 519,315 519,316 518,317 496,317 495,318 494,318 495,318 496,317 517,317 518,318 517,319 498,319 517,319 518,320 517,321 517,323 517,321 519,319 520,320 520,321 519,322 519,323 519,322 520,321 520,320 521,319 546,319 547,320 547,323 546,324 540,324 539,325 490,325 489,324 490,323 490,322 491,321 491,320 492,319 491,320 491,321 490,322 489,321 489,319 491,317 491,315 492,314 492,313 493,312 493,311 494,310 493,311 493,312 492,313 492,314 491,315 491,316 489,318 466,318 465,317 468,314 468,313 470,311 470,310 472,308 473,309 486,309 473,309 472,308 471,309 470,309 470,311 467,314 467,315 465,317 464,316 464,315 465,314 465,313 468,310 468,309 446,309 444,311 444,312 445,311 445,310 446,309 467,309 468,310 464,314 464,315 463,316 463,317 462,318 444,318 443,317 443,316 442,315 442,310 441,309 441,308 442,307 446,307 446,306 453,299 452,298 436,298 435,297 436,296 438,296 438,295 437,295 435,297 434,297 435,297 436,298 433,301 434,301 437,298 452,298 453,299 445,307 441,307 440,306 439,306 437,304 426,304 425,305 423,305 422,306 420,306 419,307 417,307 416,308 415,308 412,311 411,311 407,315 411,311 412,311 415,308 416,308 417,307 420,307 421,308 420,309 419,309 418,310 416,310 415,311 416,310 418,310 419,309 420,309 421,308 424,308 425,307 424,308 421,308 420,307 421,306 422,306 423,305 426,305 427,304 436,304 438,306 439,306 441,308 441,310 440,311 439,310 438,311 435,311 432,308 435,311 439,311 440,312 440,314 439,315 438,314 437,315 434,315 439,315 440,314 440,311 441,310 442,311 442,315 443,316 443,317 442,318 443,319 442,320 443,321 442,322 442,325 517,325 518,326 517,327 487,327 514,327 515,328 516,327 540,327 519,327 518,326 519,325 539,325 540,324 602,324 603,325 602,326 558,326 579,326 580,327 581,326 606,326 604,326 603,325 604,324 606,324 607,323 608,323 609,324 609,325 611,325 612,326 612,327 611,328 610,327 609,328 599,328 614,328 615,327 619,327 620,326 623,326 624,325 627,325 628,324 631,324 632,323 634,323 635,322 639,322 640,321 642,321 643,320 646,320 647,319 650,319 651,318 654,318 655,317 658,317 659,316 662,316 663,315 666,315 667,314 671,314 672,313 675,313 676,312 679,312 680,311 684,311 685,310 687,310 688,309 693,309 694,308 696,308 696,307 695,306 695,305 694,305 689,300 688,300 687,301 685,299 684,299 677,292 676,292 669,285 668,285 665,282 664,282 662,280 663,279 662,280 659,277 658,277 656,275 655,275 654,274 655,273 654,274 653,273 652,273 651,272 650,272 649,271 648,271 647,270 645,270 644,271 638,271 637,270 629,270 628,269 627,269 626,270 625,269 600,269 599,268 598,269 597,268 596,268 598,270 598,272 599,273 599,275 600,276 600,279 601,280 601,283 602,284 602,287 603,288 603,291 604,292 604,294 605,295 605,298 606,299 606,302 607,303 607,305 608,306 608,310 609,311 609,314 610,315 610,317 611,318 611,321 612,322 611,323 609,323 607,321 607,318 606,317 606,314 605,313 605,310 604,309 604,306 603,305 603,302 602,301 602,298 601,297 601,294 600,293 600,290 599,289 599,287 598,286 598,283 597,282 597,279 596,278 596,275 595,274 595,270 594,269 594,268 584,268 583,269 521,269 520,270 505,270 504,271 493,271 492,272 484,272 483,273 479,273 478,274 472,274 471,275 468,275 467,276 465,276 464,277 462,277 461,278 460,278 458,280 455,280 454,281 453,281 451,283 450,283 449,284 448,284 447,285 446,285 443,288 441,288 440,289 439,289 437,291 436,291 434,293 433,293 432,294 431,294 429,296 428,296 426,298 425,298 424,299 423,299 421,301 420,301 418,303 417,303 415,305 414,305 412,307 411,307 409,309 408,309 405,312 403,312 400,315 399,315 396,318 395,318 393,320 392,320 390,322 389,322 387,324 385,324 384,325 384,326 383,327 377,327 376,328 375,328 374,327 374,326 376,324 373,327 372,327 371,328 370,328 369,329 370,329 371,330 408,330 409,331 408,332 406,332 405,333 404,332 405,333 404,334 391,334 390,335 388,335 387,334 385,334 384,335 364,335 384,335 385,334 386,334 387,335 385,337 368,337 384,337 385,338 384,339 365,339 364,338 365,337 366,337 364,337 364,339 384,339 385,338 386,339 398,339 399,340 399,342 401,344 402,344 404,346 405,346 406,347 408,347 409,348 410,348 411,349 410,350 410,351 409,352 409,353 408,354 378,354 377,353 378,352 378,351 379,350 379,349 380,348 404,348 348,348 347,347 347,346 352,341 353,341 354,340 355,341 358,341 360,339 361,339 361,337 360,337 359,336 361,334 362,334 361,334 360,333 359,333 360,333 361,334 360,335 359,335 358,336 357,336 345,348 345,349 344,350 344,351 342,353 342,354 341,355 341,356 340,357 340,358 339,359 339,360 338,361 337,360 337,358 338,357 338,356 339,355 339,354 340,353 340,352 342,350 342,349 343,348 343,347 354,336 353,335 352,335 351,336 350,336 349,337 348,337 347,336 348,335 342,335 341,336 310,336 309,335 310,334 317,334 316,333 315,334 303,334 308,334 309,335 308,336 305,336 304,337 287,337 298,337 299,338 299,339 297,341 277,341 276,340 275,340 276,340 277,341 296,341 297,342 296,343 274,343 273,344 273,345 272,346 273,345 273,344 274,343 297,343 298,344 297,345 300,342 301,343 303,343 304,342 320,342 321,343 317,347 296,347 318,347 320,345 322,347 323,346 335,346 336,347 337,346 338,346 339,347 337,349 337,350 336,351 335,350 335,349 334,348 325,348 324,349 323,349 324,349 325,348 334,348 335,349 334,350 334,351 333,352 333,353 332,354 318,354 317,353 318,352 318,351 319,350 319,349 320,348 318,350 317,349 277,349 276,350 272,350 271,349 270,350 269,350 268,349 269,348 269,347 270,346 270,345 271,344 271,343 273,341 273,340 271,342 253,342 270,342 271,343 271,344 270,345 269,344 251,344 250,343 251,342 251,341 251,342 250,343 249,342 249,341 238,341 237,340 238,339 261,339 262,340 270,340 262,340 261,339 262,338 285,338 286,339 296,339 286,339 285,338 262,338 261,339 238,339 237,340 217,340 216,341 197,341 196,342 180,342 179,343 165,343 164,344 152,344 151,345 150,344 150,343 150,344 149,345 142,345 141,346 131,346 130,347 123,347 122,348 115,348 114,349 108,349 107,350 102,350 101,351 97,351 96,352 92,352 91,353 86,353 85,354 82,354 81,355 78,355 77,356 75,356 74,357 70,357 69,358 67,358 66,357 67,358 67,360 68,361 68,363 67,364 66,363 66,362 65,361 65,359 63,357 63,356 60,353 60,351 59,350 61,348 62,348 63,347 64,347 65,346 68,346 69,345 72,345 73,344 75,344 76,343 80,343 81,342 83,342 85,340 86,340 88,338 90,338 91,339 92,339 91,339 90,338 91,337 92,337 93,336 94,336 95,337 94,338 95,337 96,337 95,337 94,336 95,335 96,335 97,334 99,334 100,333 101,333 102,332 105,332 106,333 108,333 109,332 111,332 112,331 114,331 115,332 114,331 112,331 111,330 112,329 114,329 115,328 117,328 118,327 119,327 120,326 125,326 126,325 135,325 136,324 144,324 145,323 155,323 156,322 169,322 170,321 184,321 185,320 205,320 206,319 233,319 234,318 273,318 274,317 285,317 286,318 293,318 294,319 294,320 292,322 291,322 290,321 290,320 290,321 289,322 286,322 285,321 283,321 282,320 280,320 279,319 280,320 279,321 277,321 276,320 275,320 276,320 277,321 279,321 280,320 281,320 282,321 282,322 283,321 284,321 285,322 287,322 288,323 289,322 293,322 293,321 294,320 295,320 296,321 297,321 298,320 299,321 299,322 298,323 297,323 299,323 299,321 300,320 300,316 301,315 304,318 304,320 302,322 302,324 305,324 306,325 310,325 311,326 317,326 318,327 326,327 327,328 335,328 336,329 348,329 349,328 350,329 362,329 363,330 364,329 365,329 366,328 367,328 369,326 370,326 372,324 373,324 375,322 376,322 378,320 379,320 381,318 382,318 384,316 385,316 388,313 389,313 390,312 391,312 393,310 394,310 396,308 397,308 399,306 400,306 402,304 403,304 405,302 406,302 408,300 409,300 411,298 412,298 414,296 415,296 416,295 417,295 419,293 420,293 422,291 423,291 424,290 425,290 427,288 428,288 430,286 431,286 432,285 433,285 435,283 436,283 437,282 438,282 439,281 440,281 442,279 443,279 444,278 445,278 446,277 447,277 448,276 450,276 451,277 452,277 453,278 452,279 451,279 450,280 449,280 448,281 447,281 446,280 445,280 444,281 443,281 442,282 443,281 444,281 445,282 443,284 442,284 441,285 440,285 438,287 436,287 435,286 436,287 433,290 432,290 431,291 430,291 428,293 427,293 425,295 424,295 423,296 422,296 420,298 419,298 417,300 416,300 414,302 413,302 412,303 411,303 409,305 408,305 406,307 405,307 404,308 403,308 400,311 399,311 397,313 396,313 394,315 393,315 391,317 390,317 388,319 387,319 385,321 384,321 382,323 381,323 379,325 378,325 379,325 381,323 382,323 384,321 385,321 387,319 388,319 390,317 391,317 392,318 391,317 393,315 394,315 396,313 397,313 399,311 400,311 401,310 402,310 404,308 405,308 407,306 408,306 410,304 411,304 413,302 414,302 416,300 417,300 419,298 420,298 421,297 422,297 424,295 425,295 427,293 428,293 429,292 430,292 432,290 433,290 435,288 436,288 437,287 438,287 439,286 440,286 442,284 443,284 444,283 445,283 447,281 448,281 449,280 450,280 451,279 452,279 453,278 454,278 455,277 457,277 458,276 459,276 460,275 462,275 463,274 465,274 463,274 462,273 463,274 462,275 460,275 459,274 460,275 459,276 458,276 457,277 455,277 454,276 453,276 452,275 453,274 454,274 456,272 459,272 460,271 462,271 463,270 465,270 466,269 468,269 469,268 473,268 474,267 479,267 480,266 484,266 485,265 494,265 495,264 509,264 510,263 529,263 530,262 554,262 555,261 556,262 572,262 573,263 573,264 572,265 571,264 550,264 571,264 572,265 573,264 591,264 592,265 609,265 610,266 618,266 619,265 621,265 619,265 618,266 610,266 609,265 597,265 596,264 596,263 596,264 595,265 592,265 591,264 574,264 573,263 574,262 590,262 591,261 597,261 598,262 599,262 600,261 605,261 606,262 608,262 609,261 610,262 623,262 624,263 625,262 626,262 627,263 636,263 637,264 637,265 640,265 641,266 646,266 647,267 649,267 650,268 651,268 652,269 653,269 654,270 655,270 656,271 657,271 658,272 660,272 659,272 658,271 657,271 656,270 655,270 654,269 653,269 652,268 651,268 650,267 647,267 646,266 641,266 640,265 638,265 636,263 627,263 626,262 625,262 624,263 623,262 610,262 609,261 608,262 606,262 605,261 600,261 599,262 598,262 597,261 591,261 590,262 556,262 555,261 554,262 530,262 529,263 510,263 509,264 495,264 494,265 485,265 484,266 480,266 479,267 474,267 473,268 468,268 467,269 466,269 465,270 463,270 462,271 460,271 459,272 456,272 455,273 454,273 453,274 452,274 451,275 450,275 449,276 447,276 445,278 443,278 441,280 440,280 439,281 438,281 437,282 436,282 435,283 434,283 432,285 431,285 430,286 429,286 427,288 426,288 424,290 423,290 422,291 421,291 419,293 418,293 416,295 415,295 414,296 413,296 410,299 409,299 408,300 407,300 405,302 404,302 402,304 401,304 399,306 398,306 396,308 395,308 393,310 392,310 390,312 389,312 388,313 387,313 384,316 383,316 381,318 380,318 378,320 377,320 375,322 374,322 372,324 371,324 369,326 368,326 366,328 365,328 363,330 362,329 350,329 348,327 349,326 350,326 351,325 353,325 357,321 358,321 361,318 362,318 363,317 364,317 366,315 367,315 369,313 370,313 372,311 373,311 376,308 377,308 378,307 379,307 380,306 381,306 382,307 381,306 384,303 385,303 387,301 388,301 389,300 390,301 390,302 389,303 388,303 386,305 385,305 384,306 385,307 390,307 391,308 390,309 386,309 390,309 392,307 393,307 395,305 393,307 392,307 391,308 390,307 385,307 384,306 385,305 386,305 388,303 389,303 391,301 392,301 394,299 395,299 397,297 398,297 399,298 407,298 399,298 398,297 397,297 396,296 397,295 398,295 398,294 399,293 400,293 402,291 403,291 404,290 403,291 401,289 402,288 403,288 402,288 399,285 398,285 397,284 398,283 399,283 397,281 398,282 398,283 397,284 395,282 398,285 397,286 395,286 397,286 398,285 399,285 401,287 399,289 400,288 402,290 402,291 400,293 399,293 397,295 396,295 394,297 393,297 391,299 390,299 389,298 388,298 389,298 390,299 388,301 387,301 386,302 385,302 383,304 382,304 379,307 378,307 377,308 376,308 374,310 373,310 372,309 373,310 371,312 370,312 368,314 367,314 365,316 364,316 362,318 359,318 358,317 359,316 360,316 361,315 362,315 364,313 365,313 366,312 365,313 364,313 362,315 361,315 360,316 359,316 358,317 360,319 359,320 358,320 356,322 355,322 352,325 350,325 348,327 346,325 348,323 349,323 350,322 351,322 353,320 354,320 353,320 351,322 350,322 349,323 348,323 347,322 348,321 347,322 348,323 346,325 345,325 346,325 349,328 348,329 336,329 335,328 327,328 326,327 319,327 318,326 311,326 310,325 306,325 305,324 303,324 302,323 304,321 305,321 304,320 304,317 302,315 300,315 299,316 298,316 297,317 294,317 293,318 286,318 285,317 274,317 273,318 234,318 233,319 206,319 205,320 185,320 184,321 170,321 169,322 156,322 155,323 145,323 144,324 136,324 135,325 126,325 125,326 120,326 119,327 117,327 116,328 115,328 114,329 111,329 110,330 108,330 107,331 105,331 104,332 102,332 101,333 99,333 98,334 96,334 95,335 94,335 93,336 92,336 91,337 90,337 89,338 88,338 87,339 86,339 84,341 83,341 82,342 81,342 80,343 76,343 75,344 73,344 72,345 69,345 68,346 65,346 64,347 62,347 61,348 60,348 58,350 56,350 54,352 53,352 51,354 50,354 47,357 46,357 43,360 43,361 42,362 42,364 45,367 46,367 49,370 49,377 50,378 50,391 49,392 49,393 48,394 47,394 46,395 44,395 43,396 42,396 41,397 38,397 37,398 34,398 33,399 31,399 30,400 30,401 29,402 29,426 30,427 30,432 34,436 36,436 37,437 38,437 41,440 41,442 43,444 43,446 44,447 44,448 45,449 45,450 46,451 46,452 47,453 47,454 48,455 48,456 49,457 49,458 50,459 50,460 51,461 51,462 52,463 52,464 53,465 53,466 54,467 50,471 46,471 45,472 42,472 41,473 37,473 36,474 34,474 33,475 32,475 32,477 31,478 31,482 32,483 32,484 34,486 35,486 36,487 38,487 39,488 42,488 43,489 64,489 65,490 104,490 105,489 107,489 108,488 109,488 110,487 110,483 112,481 112,480 113,479 124,479 127,482 127,484 128,485 128,487 129,488 129,489 130,490 130,491 131,492 131,493 132,494 132,495 133,496 133,497 135,499 135,500 137,502 137,503 141,507 140,508 99,508 98,509 79,509 77,511 60,511 58,513 60,511 77,511 79,509 98,509 99,508 141,508 141,505 142,504 146,508 145,509 143,509 145,511 144,510 146,508 142,504 141,505 140,505 137,502 137,501 135,499 136,498 137,498 141,502 142,501 153,512 154,512 156,514 155,515 154,515 153,516 153,517 154,518 155,518 156,519 158,519 159,518 158,519 156,519 153,516 154,515 155,515 156,514 157,515 158,515 159,516 160,516 162,518 164,518 166,520 165,521 164,521 165,521 166,522 165,523 164,523 166,523 167,524 167,525 169,525 170,526 173,526 170,526 169,525 168,525 167,524 168,523 169,523 168,523 167,524 166,523 166,522 165,521 166,520 167,520 168,521 170,521 171,522 173,522 174,523 176,523 177,524 180,524 181,525 184,525 185,526 206,526 207,525 211,525 212,524 215,524 216,523 218,523 219,524 218,525 217,525 216,526 217,527 219,527 220,526 221,526 221,524 219,524 218,523 219,522 221,522 222,521 223,521 224,520 225,520 226,519 227,519 228,518 230,518 232,516 233,516 235,514 236,514 239,511 240,511 248,503 249,504 249,505 250,506 251,506 254,503 255,504 255,505 251,509 253,507 254,508 303,508 304,509 329,509 330,510 333,510 334,509 351,509 352,510 356,510 357,509 360,509 361,510 378,510 379,509 391,509 392,510 583,510 584,509 587,509 588,510 597,510 598,509 600,509 601,510 615,510 616,509 618,509 619,510 623,510 624,509 643,509 644,510 649,510 650,509 657,509 658,510 659,510 660,509 676,509 677,508 680,508 681,509 684,509 685,508 728,508 728,506 723,501 723,500 721,498 721,497 717,493 716,493 710,487 712,485 713,485 713,483 712,482 712,480 711,479 711,477 710,476 710,473 709,472 709,468 708,467 708,461 707,460 707,451 708,450 708,443 709,442 709,438 710,437 710,435 711,434 711,432 712,431 712,429 713,428 713,427 714,426 714,425 715,424 715,423 716,422 716,421 718,419 718,418 719,417 719,416 721,414 721,413 725,409 725,408 733,400 734,400 737,397 738,397 741,394 742,394 743,393 744,393 746,391 747,391 748,390 749,390 750,389 752,389 753,388 754,388 755,387 757,387 758,386 760,386 761,385 763,385 764,384 769,384 770,383 779,383 780,382 781,383 782,382 783,383 793,383 794,384 799,384 800,385 802,385 803,386 804,386 803,385 800,385 799,384 794,384 793,383 783,383 782,382 782,376 782,382 781,383 780,382 780,376 780,382 779,383 770,383 769,384 764,384 763,385 761,385 760,386 758,386 757,387 755,387 754,388 752,388 751,389 749,389 747,391 745,391 743,393 742,393 741,394 740,394 737,397 736,397 733,400 732,400 725,407 725,408 721,412 721,413 719,415 719,416 718,417 718,418 716,420 716,421 715,422 715,423 714,424 714,426 713,427 713,428 712,429 712,431 711,432 711,434 710,435 710,437 709,438 709,442 708,443 708,450 707,451 707,460 708,461 708,467 709,468 709,472 710,473 710,476 711,477 711,479 712,480 712,482 713,483 713,484 710,487 697,487 695,485 695,480 696,479 696,477 696,479 695,480 692,480 691,479 691,477 691,482 690,483 688,483 687,482 687,480 686,480 686,481 687,482 686,483 685,483 684,482 684,477 684,482 683,483 682,483 681,482 681,481 682,480 681,479 681,477 680,478 679,477 678,478 677,478 676,477 675,478 674,477 674,479 673,480 674,481 674,482 673,483 674,484 673,485 674,486 674,487 673,488 672,488 671,487 671,476 672,475 696,475 695,474 696,473 696,462 697,461 697,451 698,450 698,445 699,444 699,440 700,439 700,436 701,435 701,433 702,432 702,431 703,430 703,429 704,428 704,426 705,425 705,423 707,421 707,420 709,418 709,417 710,416 710,415 712,413 712,411 713,410 714,410 715,409 715,408 721,402 721,401 725,397 726,397 730,393 731,393 736,388 737,388 738,387 739,387 740,386 741,386 742,385 743,385 744,384 745,384 747,382 748,382 749,381 750,381 751,380 753,380 754,379 756,379 757,378 758,378 759,377 762,377 763,376 765,376 766,375 771,375 772,374 780,374 781,373 788,373 789,374 800,374 801,375 804,375 805,376 807,376 808,377 811,377 812,378 814,378 815,379 816,379 817,380 818,380 819,381 820,381 821,382 822,382 823,383 824,383 825,384 827,384 829,386 830,386 832,388 833,388 835,390 836,390 842,396 843,396 848,401 848,402 853,407 853,408 856,411 856,412 857,413 860,413 861,414 886,414 861,414 860,413 861,412 886,412 887,411 928,411 929,412 928,413 889,413 926,413 928,415 927,416 922,416 921,415 918,415 917,416 916,416 917,416 918,415 921,415 922,416 924,416 925,417 926,416 928,416 929,417 930,417 929,416 930,415 935,415 936,416 935,417 934,417 935,418 935,419 936,420 936,421 935,422 936,423 936,424 935,425 936,426 936,427 935,428 934,428 935,429 934,430 933,430 932,429 932,430 930,432 926,432 925,431 926,430 925,431 925,432 924,433 918,433 917,432 916,432 915,431 914,432 906,432 905,431 905,430 906,429 915,429 916,428 930,428 931,427 932,427 932,426 933,425 933,420 932,419 923,419 922,420 900,420 899,421 898,421 897,420 894,420 893,421 892,421 890,419 890,417 889,416 889,415 889,417 888,418 887,417 887,416 885,416 886,416 887,417 886,418 886,419 886,418 887,417 888,418 888,420 887,421 885,421 886,421 887,422 886,423 886,424 886,423 888,421 889,421 890,422 890,424 891,425 891,428 892,429 892,433 890,435 889,434 889,432 888,431 888,429 888,431 887,432 886,431 886,428 887,427 887,426 887,427 886,428 885,427 885,426 884,425 884,423 883,422 883,421 882,421 884,423 884,425 883,426 880,426 879,425 879,423 880,422 881,423 881,424 881,423 880,422 880,420 881,419 882,419 882,417 883,416 882,417 881,416 881,417 882,418 880,420 879,419 879,417 878,416 878,417 879,418 879,419 880,420 880,422 879,423 878,422 878,421 877,422 871,422 870,421 871,420 872,420 871,419 871,417 872,416 873,417 873,418 874,419 874,420 876,420 877,419 876,418 876,417 875,416 874,417 873,417 872,416 871,417 866,417 865,418 864,417 864,416 863,417 862,417 864,417 865,418 865,419 864,420 865,419 866,420 866,421 865,422 864,422 869,422 870,421 871,422 871,424 873,426 873,428 872,429 870,429 869,428 869,427 870,426 871,427 870,426 869,427 867,427 868,427 869,428 868,429 867,429 868,429 869,428 870,429 870,431 871,432 871,433 870,434 869,434 871,434 872,435 871,436 870,436 872,436 873,437 873,439 874,440 874,441 873,442 872,442 873,442 874,443 873,444 872,444 874,444 875,445 875,447 876,448 876,449 875,450 874,450 877,450 878,451 877,452 875,452 876,452 877,453 877,455 878,456 877,457 875,457 877,457 878,458 877,459 876,459 878,459 878,456 877,455 877,453 878,452 879,452 881,454 881,455 880,456 885,456 886,455 887,455 888,456 886,458 887,457 888,457 888,456 889,455 890,456 890,455 891,454 892,455 892,456 893,456 894,455 894,452 894,455 893,456 892,455 892,452 892,453 890,455 888,455 887,454 887,452 888,451 889,452 889,453 889,451 890,450 894,450 893,449 894,448 894,447 895,446 895,444 895,446 893,448 892,448 890,446 890,444 889,443 889,439 890,438 891,439 891,442 891,441 892,440 893,440 894,441 893,442 895,442 896,441 897,442 897,447 896,448 896,452 897,453 897,454 896,455 898,455 900,453 902,453 903,452 905,452 906,453 906,454 906,453 907,452 908,452 909,451 914,451 909,451 908,452 906,452 905,451 905,449 906,448 910,448 911,447 914,447 915,448 915,449 916,450 916,452 916,451 917,450 921,450 922,449 927,449 928,450 928,452 927,453 923,453 922,454 918,454 917,455 916,454 915,455 911,455 910,456 906,456 905,457 904,456 903,457 901,457 900,456 899,457 898,457 897,458 895,458 894,459 893,458 892,459 889,459 888,460 884,460 883,461 879,461 878,462 875,462 874,461 874,460 873,459 873,455 872,454 872,451 871,450 871,447 870,446 870,443 869,442 869,440 868,439 868,436 867,435 867,434 866,433 866,431 865,430 865,428 864,427 864,426 863,425 863,424 862,423 862,421 861,420 861,419 860,418 860,417 859,416 859,415 859,417 861,419 861,421 862,422 862,423 863,424 863,426 864,427 864,428 865,429 865,430 866,431 866,433 867,434 867,435 868,436 868,439 869,440 869,442 870,443 870,446 871,447 871,450 872,451 872,454 873,455 873,459 874,460 874,462 878,462 879,461 884,461 885,460 889,460 890,459 894,459 895,458 898,458 899,457 905,457 906,458 905,459 900,459 899,460 896,460 895,461 891,461 890,462 886,462 891,462 892,461 895,461 896,460 899,460 900,461 900,463 899,464 898,463 898,462 898,464 897,465 895,465 894,464 895,463 893,463 894,464 894,467 893,468 892,468 891,467 892,466 891,465 891,464 891,465 890,466 889,465 889,464 888,464 887,465 888,464 889,465 889,466 888,467 886,467 883,464 884,463 880,463 879,464 875,464 875,476 876,477 876,490 877,489 880,489 881,488 883,488 884,487 889,487 890,486 893,486 894,485 898,485 899,484 900,484 901,483 906,483 907,482 911,482 912,481 915,481 916,480 919,480 920,479 925,479 926,478 930,478 931,477 935,477 936,476 939,476 940,475 944,475 945,474 949,474 950,473 954,473 955,472 958,472 959,471 960,471 961,470 963,470 968,465 969,465 969,464 970,463 971,464 971,467 970,468 969,467 970,468 969,469 971,467 972,467 973,468 968,473 966,473 966,474 961,479 960,479 959,480 931,480 930,481 927,481 926,482 922,482 921,483 917,483 916,484 912,484 911,485 907,485 906,486 904,486 906,486 907,485 911,485 912,484 916,484 917,483 921,483 922,482 926,482 927,483 927,484 926,485 925,485 927,485 927,483 926,482 927,481 930,481 931,480 939,480 940,481 940,484 939,485 939,487 937,489 890,489 889,490 886,490 885,491 881,491 880,492 874,492 873,491 873,489 874,488 873,487 873,486 853,486 852,487 852,488 851,489 849,487 849,488 848,489 848,490 847,491 846,490 846,488 847,487 847,486 848,485 848,484 849,483 849,481 850,480 851,481 851,483 851,481 852,480 853,480 854,481 853,482 853,484 853,482 854,481 856,481 855,481 854,480 853,480 852,479 852,480 851,481 850,480 850,477 851,476 851,473 852,472 852,469 853,468 852,467 853,466 853,450 852,449 852,444 853,443 854,444 854,448 855,447 857,449 857,452 856,453 855,452 855,450 855,453 857,453 857,448 856,447 856,442 855,441 855,439 854,438 854,435 853,434 853,432 852,431 851,431 850,432 851,431 853,433 853,434 854,435 854,436 853,437 851,435 851,434 851,435 852,436 852,437 853,437 854,438 853,439 852,439 851,440 850,439 850,437 849,436 849,434 848,433 848,431 847,430 847,429 848,428 849,429 851,429 851,428 850,427 850,425 849,425 848,424 846,424 845,425 843,423 843,422 841,420 841,419 840,418 840,417 841,416 842,417 844,417 847,420 847,421 846,422 843,419 845,421 845,422 847,422 847,420 844,417 842,417 841,416 842,415 843,415 842,414 842,413 840,411 839,411 842,414 842,415 840,417 830,407 832,405 834,405 837,408 836,409 835,409 833,407 835,409 837,409 837,407 835,405 833,405 831,403 831,402 829,400 826,400 828,400 831,403 830,404 829,404 827,402 829,404 828,405 827,405 823,401 822,401 821,400 822,399 824,399 825,398 825,397 824,397 823,396 824,395 825,395 824,395 823,396 821,396 820,395 819,395 817,393 816,393 815,392 814,392 813,391 812,392 810,390 809,390 808,389 804,389 803,388 802,388 801,387 796,387 795,386 788,386 788,388 790,388 791,389 793,389 793,388 795,386 796,387 796,388 798,390 797,391 790,391 789,390 782,390 781,391 773,391 772,392 769,392 768,393 765,393 764,394 762,394 761,395 759,395 758,394 759,393 760,393 761,392 763,392 764,391 767,391 768,390 771,390 771,389 772,388 773,389 777,389 777,387 778,386 779,387 779,388 780,387 781,388 786,388 785,387 786,386 786,385 782,385 781,386 780,386 779,387 778,386 778,385 776,385 775,386 772,386 772,387 771,388 770,387 766,387 765,388 764,388 764,389 763,390 764,391 763,392 762,392 761,391 761,389 760,389 759,390 757,390 756,391 756,394 755,395 754,394 754,392 752,392 751,393 750,393 748,395 747,395 748,396 748,397 749,398 748,397 748,396 751,393 752,393 753,392 754,393 754,394 751,397 752,396 753,396 754,395 755,395 756,394 758,394 759,395 758,396 757,396 756,397 755,397 754,398 753,398 752,399 751,399 750,400 749,400 747,402 746,402 744,404 743,404 738,409 737,409 736,408 740,404 740,401 738,401 735,404 735,406 736,407 736,408 737,409 736,410 736,411 730,417 729,416 729,415 728,414 728,413 727,412 725,414 725,419 725,415 727,413 729,415 729,416 727,418 729,416 730,417 730,418 728,420 728,421 726,423 726,424 725,425 725,426 724,427 723,426 723,424 724,423 724,421 722,419 721,420 721,421 720,422 720,424 719,425 718,425 718,427 717,428 717,433 718,434 719,434 719,433 720,432 720,430 721,429 718,426 719,425 720,425 721,426 720,425 720,423 721,422 721,421 722,420 723,420 724,421 724,423 723,424 723,426 724,427 724,428 723,429 723,430 722,431 722,433 721,434 721,435 720,436 720,439 719,440 719,442 718,443 718,447 717,448 716,447 716,444 715,443 717,441 717,439 718,438 718,436 717,436 715,434 715,433 715,435 714,436 714,440 713,441 713,443 712,444 712,448 711,449 711,454 712,455 712,457 711,458 711,463 712,464 712,465 711,466 711,468 712,469 712,471 713,472 713,473 712,474 713,475 713,477 714,478 714,479 715,480 715,482 716,483 716,486 719,489 718,490 718,491 723,496 723,497 724,498 726,498 729,501 729,502 728,503 726,501 728,503 729,503 729,501 726,498 724,498 723,497 724,496 725,496 723,496 720,493 720,492 721,491 722,491 723,492 723,493 724,494 723,493 723,492 722,491 720,491 719,492 718,491 718,490 719,489 721,489 721,488 720,489 716,485 716,484 717,483 718,484 719,484 720,485 720,486 720,485 719,484 718,484 717,483 716,483 715,482 716,481 717,481 718,480 718,479 717,478 717,477 716,476 715,476 716,476 717,477 717,478 718,479 718,480 717,481 716,481 714,479 714,478 713,477 713,475 712,474 713,473 714,473 715,474 716,474 716,470 717,469 718,470 718,474 719,475 719,477 720,478 720,481 719,482 720,481 721,482 721,483 722,484 722,485 723,486 723,488 724,489 724,490 725,491 725,492 727,494 727,495 728,496 728,497 731,500 731,501 737,507 737,508 738,508 739,509 738,510 736,510 734,512 735,512 737,514 741,514 742,515 742,516 741,517 742,517 744,519 747,519 749,517 750,517 751,518 749,520 749,522 750,522 751,523 754,523 754,522 753,521 754,522 753,523 752,523 751,522 750,522 749,521 749,520 750,519 751,520 750,519 751,518 753,518 754,519 755,519 757,521 759,521 760,522 762,522 763,523 765,523 766,524 769,524 770,525 774,525 775,526 795,526 796,525 800,525 801,524 804,524 805,523 807,523 808,522 809,522 810,523 809,524 810,525 809,526 808,526 807,525 806,525 805,526 804,526 805,527 807,527 808,526 809,526 810,527 814,527 813,527 812,526 814,524 816,524 817,523 817,521 817,523 816,524 814,524 813,523 814,522 815,522 814,522 812,524 812,526 811,527 810,526 810,522 811,521 812,521 813,520 814,520 815,519 817,519 819,517 820,517 821,516 822,516 823,515 824,515 825,516 824,517 824,519 823,520 822,520 821,521 820,521 819,520 819,521 822,521 824,519 824,517 825,516 826,517 828,517 831,514 831,513 829,511 835,505 837,507 835,505 837,503 838,504 838,505 839,506 839,508 839,506 838,505 839,504 839,503 841,501 843,503 841,505 841,506 843,504 843,503 846,500 846,499 847,498 847,497 849,495 849,494 850,493 850,492 851,491 851,490 852,489 852,488 854,486 872,486 874,488 873,489 873,492 880,492 881,491 885,491 886,490 889,490 890,489 938,489 939,488 939,485 940,484 940,481 941,480 959,480 960,479 962,479 968,473 969,473 978,464 978,463 980,461 980,460 981,459 981,458 980,457 980,456 979,455 981,453 981,452 983,450 983,448 984,447 983,446 983,433 984,432 984,429 985,428 985,425 986,424 986,421 987,420 987,415 988,414 988,409 989,408 989,403 990,402 990,400 989,399 989,390 988,389 988,384 985,381 984,381 983,380 981,380 980,379 980,378 979,377 979,376 978,375 978,374 977,373 979,371 979,369 978,368 978,366 977,365 977,363 976,362 976,360 975,359 975,358 974,357 974,356 973,355 973,353 972,352 972,350 971,349 971,348 970,347 970,344 969,343 969,336 968,335 968,331 969,330 969,329 970,328 970,327 971,326 971,325 973,323 973,322 974,321 974,320 975,319 975,314 974,313 973,313 972,312 970,312 969,311 963,311 962,312 960,312 959,311 958,311 957,310 942,310 941,311 939,311 938,312 936,312 935,313 934,313 933,314 932,314 931,315 930,315 928,317 926,317 925,318 917,318 916,317 912,317 911,316 905,316 904,315 898,315 897,314 891,314 890,313 883,313 882,312 876,312 875,311 868,311 867,310 859,310 858,309 849,309 848,308 841,308 840,307 838,307 837,306 835,306 834,305 833,305 832,304 830,304 829,303 827,303 826,302 823,302 822,301 821,301 820,300 819,300 818,299 816,299 815,298 814,298 813,297 812,297 811,296 810,296 809,295 808,295 807,294 806,294 805,293 804,293 803,292 801,292 799,290 798,290 797,289 796,289 795,288 794,288 793,287 792,287 791,286 790,286 789,285 788,285 787,284 786,284 785,283 784,283 782,281 781,281 780,280 779,280 778,279 777,279 776,278 774,278 772,276 771,276 770,275 769,275 768,274 766,274 764,272 763,272 762,271 761,271 760,270 758,270 757,269 756,269 755,268 754,268 753,267 752,267 751,266 749,266 747,264 745,264 744,263 743,263 742,262 740,262 739,261 738,261 735,258 734,258 733,257 731,257 730,256 728,256 727,255 725,255 724,254 722,254 721,253 720,253 719,252 715,252 713,250 713,247 714,246 714,245 715,244 715,243 716,242 716,240 715,240 714,239" stroke="white" stroke-width="1" /></svg>