<svg baseProfile="tiny" height="154" version="1.2" width="589" xmlns="http://www.w3.org/2000/svg" xmlns:ev="http://www.w3.org/2001/xml-events" xmlns:xlink="http://www.w3.org/1999/xlink"><defs /><polyline fill="none" points="91,131 91,132 90,133 87,133 90,133 91,132" stroke="white" stroke-width="1" /><polyline fill="none" points="148,108 148,109" stroke="white" stroke-width="1" /><polyline fill="none" points="147,106 146,107 146,109 146,107" stroke="white" stroke-width="1" /><polyline fill="none" points="188,105 188,109 189,109 188,108" stroke="white" stroke-width="1" /><polyline fill="none" points="163,105 163,108 166,108 167,109 166,110 162,110 167,110 167,108 164,108 163,107 163,106 164,105 167,105" stroke="white" stroke-width="1" /><polyline fill="none" points="487,104 487,109" stroke="white" stroke-width="1" /><polyline fill="none" points="542,103 542,104 541,105 540,105 539,106 539,107 542,107 540,107 539,106 540,105 545,105 546,106 545,107 544,107 544,108 543,109 542,109 543,109 545,107 546,107 546,106 544,104 543,105 542,104" stroke="white" stroke-width="1" /><polyline fill="none" points="456,101 457,102 457,106 458,107 458,109 459,109 458,108 458,107 457,106 457,102 458,101 459,101 460,102 461,101" stroke="white" stroke-width="1" /><polyline fill="none" points="178,101 178,109 180,109 180,105 180,108 179,109 178,108" stroke="white" stroke-width="1" /><polyline fill="none" points="163,101 163,103 166,103 164,103 163,102 164,101 166,101" stroke="white" stroke-width="1" /><polyline fill="none" points="161,101 161,108" stroke="white" stroke-width="1" /><polyline fill="none" points="146,101 146,103 147,104 149,102 148,101" stroke="white" stroke-width="1" /><polyline fill="none" points="144,101 144,109" stroke="white" stroke-width="1" /><polyline fill="none" points="486,100 486,102 485,103 485,109 485,103 486,102 486,101 487,100 488,101 488,102 490,104 489,105 489,107 491,109 492,109 493,110 493,100 493,108 492,109 489,106 489,105 491,103 491,100 491,103 490,104 489,103 489,102 488,101 488,100" stroke="white" stroke-width="1" /><polyline fill="none" points="474,100 474,109" stroke="white" stroke-width="1" /><polyline fill="none" points="472,100 472,109" stroke="white" stroke-width="1" /><polyline fill="none" points="445,100 445,106 444,107 444,108 443,109 442,108 442,107 440,105 440,106 439,107 439,109 439,107 440,106 442,108 442,109 444,109 444,107 445,106" stroke="white" stroke-width="1" /><polyline fill="none" points="443,100 443,105" stroke="white" stroke-width="1" /><polyline fill="none" points="426,100 426,109" stroke="white" stroke-width="1" /><polyline fill="none" points="424,100 424,109" stroke="white" stroke-width="1" /><polyline fill="none" points="376,100 377,101 377,103 376,104 376,106 378,108 378,109 378,108 376,106 376,104 377,103 378,104 378,105 378,104 377,103 377,101" stroke="white" stroke-width="1" /><polyline fill="none" points="374,100 374,101 373,102 373,103 372,104 371,104 371,105 372,104 373,104 374,105 374,106 373,107 373,109 373,107 374,106 374,105 373,104 373,102 374,101" stroke="white" stroke-width="1" /><polyline fill="none" points="308,100 308,109 309,109 310,108 310,107 311,106 313,108 313,109 315,109 315,105 314,104 314,102 315,101 316,102 315,101 315,100 314,100 313,101 314,102 314,104 313,105 314,104 315,105 315,108 314,109 313,108 313,107 312,107 311,106 311,105 311,106 310,107 310,108 309,109 308,108 308,101 309,100 311,102 311,103 312,103 311,102 311,101 310,100" stroke="white" stroke-width="1" /><polyline fill="none" points="295,100 294,101 294,108 295,109 296,109 295,109 294,108 294,101 295,100 296,100" stroke="white" stroke-width="1" /><polyline fill="none" points="245,100 245,109 244,110 243,109 243,106 243,110 245,110" stroke="white" stroke-width="1" /><polyline fill="none" points="234,100 234,109 235,109 236,108 237,108 238,109 241,109 241,108 240,109 239,109 237,107 237,106 238,105 239,105 240,106 240,105 242,103 242,102 243,101 243,100 242,101 242,102 239,105 238,104 238,103 237,103 236,102 236,100 236,102 238,104 238,105 237,106 237,107 235,109 234,108" stroke="white" stroke-width="1" /><polyline fill="none" points="214,100 214,108 216,110 219,110 216,110 214,108 214,101 215,100 216,101 216,107 217,108 219,108 220,107 220,106 221,105 222,106 222,108 221,109 222,108 222,106 223,105 223,101 222,100 221,100 221,105 220,106 220,107 219,108 218,108 216,106 216,101 215,100" stroke="white" stroke-width="1" /><polyline fill="none" points="201,100 200,101 200,108 201,109 202,109 203,108 203,107 203,108 202,109 201,109 200,108 200,101 201,100 202,100 203,101 203,102 203,101 202,100" stroke="white" stroke-width="1" /><polyline fill="none" points="180,100 180,101 182,103 182,104 183,105 183,106 182,107 182,108 183,109 185,109 186,108 186,106 185,105 185,104 187,102 187,101 188,100 189,101 189,103 190,104 190,106 190,104 189,103 189,100 187,100 187,101 186,102 186,103 185,104 185,105 186,106 186,107 184,109 183,109 182,108 182,107 183,106 183,104 182,103 182,102 181,102 180,101" stroke="white" stroke-width="1" /><polyline fill="none" points="507,99 504,102 504,106 505,107 505,108 507,110 512,110 513,109 514,109 514,104 514,108 512,110 507,110 505,108 505,107 506,106 508,108 511,108 512,107 512,105 511,105 510,104 512,102 514,102 513,102 512,101 513,100 514,100 513,100 512,99" stroke="white" stroke-width="1" /><polyline fill="none" points="455,99 462,99" stroke="white" stroke-width="1" /><polyline fill="none" points="437,99 437,109 437,101 438,100 441,103 441,102 439,100 438,100" stroke="white" stroke-width="1" /><polyline fill="none" points="407,99 410,99 411,100 411,108 410,109 409,108 409,101 408,101 409,102 409,109 411,109 411,102 412,101 413,101 413,99" stroke="white" stroke-width="1" /><polyline fill="none" points="381,99 381,101 380,102 380,104 381,105 381,106 380,107 380,109 380,107 381,106 381,105 382,104 382,102 383,101 383,99" stroke="white" stroke-width="1" /><polyline fill="none" points="369,99 368,100 368,103 369,104 369,106 371,108 371,109 371,108 369,106 369,104 368,103 368,101 369,100 370,101 370,102 370,100" stroke="white" stroke-width="1" /><polyline fill="none" points="350,99 349,100 348,100 347,101 347,108 348,109 349,109 350,110 354,110 355,109 356,109 357,108 357,106 358,105 358,103 357,102 357,101 355,99" stroke="white" stroke-width="1" /><polyline fill="none" points="327,99 327,110 333,110 335,108 335,107 336,106 336,103 336,106 335,107 334,106 334,103 332,101 329,101 329,108 332,108 334,106 335,107 335,108 333,110 328,110 327,109 327,100 328,99 333,99 335,101 333,99" stroke="white" stroke-width="1" /><polyline fill="none" points="269,99 269,101 270,102 270,104 271,105 271,107 272,108 272,109 274,109 275,108 275,107 276,106 276,104 275,103 275,102 277,100 279,102 279,103 278,104 278,106 279,107 279,109 281,109 282,108 282,107 283,106 283,105 284,104 284,101 285,100 285,99 283,99 283,100 282,101 282,102 281,103 281,105 281,104 282,103 283,104 283,106 282,107 282,108 281,109 280,109 279,108 279,107 278,106 278,104 279,103 279,102 278,101 278,99 277,100 276,99 276,101 274,103 274,105 274,104 275,103 276,104 276,106 275,107 275,108 274,109 273,109 272,108 272,107 271,106 271,105 270,104 270,102 271,101 272,102 272,103 272,102 271,101 271,99" stroke="white" stroke-width="1" /><polyline fill="none" points="162,99 167,99" stroke="white" stroke-width="1" /><polyline fill="none" points="145,99 149,99 151,101 151,103 149,105 149,106 150,107 150,109 150,107 149,106 151,104 151,100 150,99" stroke="white" stroke-width="1" /><polyline fill="none" points="128,99 128,100 127,101 127,103 128,104 128,105 127,106 127,108 128,109 129,109 129,107 131,105 133,105 134,104 134,100 133,99" stroke="white" stroke-width="1" /><polyline fill="none" points="48,73 48,74 51,77 51,89 50,90 49,89 49,88 45,84 45,82 45,84 46,85 46,86 50,90 51,89 51,76" stroke="white" stroke-width="1" /><polyline fill="none" points="46,72 46,80" stroke="white" stroke-width="1" /><polyline fill="none" points="67,65 67,73 68,73 69,72 68,73 67,72" stroke="white" stroke-width="1" /><polyline fill="none" points="45,64 45,70 44,71 44,80 43,81 43,109 44,110 44,121 45,122 45,128 44,129 41,129 40,128 35,128 34,127 22,127 21,128 19,128 18,129 16,129 18,129 19,130 18,131 16,131 18,131 19,130 21,130 22,129 34,129 35,130 40,130 41,131 45,131 46,130 50,130 51,129 53,129 54,128 56,128 57,127 66,127 67,128 70,128 71,129 73,129 74,130 77,130 78,131 80,131 81,132 85,132 86,131 89,131 86,131 85,130 81,130 80,129 78,129 77,128 74,128 73,127 71,127 70,126 68,126 67,125 59,125 57,123 57,121 56,120 56,113 55,112 55,106 55,112 56,113 56,120 55,121 54,120 53,120 52,119 53,118 54,118 54,114 54,117 53,118 52,117 52,116 51,115 50,115 48,113 48,112 45,109 45,90 46,89 47,90 47,91 52,96 52,105 53,106 53,112 53,106 52,105 52,96 51,95 51,94 46,89 45,90 45,109 44,110 43,109 43,81 44,80 44,71 45,70" stroke="white" stroke-width="1" /><polyline fill="none" points="49,61 49,62 47,64 47,69 49,71 49,70 47,68 47,64 49,62 50,63 50,64 51,65 51,73 51,64 50,63 50,62" stroke="white" stroke-width="1" /><polyline fill="none" points="548,55 547,56 546,56 545,57 544,57 541,60 541,61 540,62 540,64 539,65 539,74 540,75 540,77 541,78 541,79 544,82 545,82 546,83 548,83 549,84 556,84 557,83 559,83 561,81 561,80 562,79 562,78 559,78 559,79 556,82 551,82 547,78 547,77 546,76 546,71 547,70 562,70 563,69 563,61 561,59 561,58 560,57 559,57 558,56 556,56 555,55" stroke="white" stroke-width="1" /><polyline fill="none" points="501,55 500,56 498,56 497,57 495,57 495,59 496,59 498,61 498,80 496,82 495,82 497,84 506,84 508,82 507,82 505,80 505,55" stroke="white" stroke-width="1" /><polyline fill="none" points="464,55 464,57 465,57 468,60 468,62 469,63 469,65 470,66 470,67 471,68 471,70 472,71 472,73 473,74 473,75 474,76 474,78 475,79 475,81 476,82 476,83 477,84 480,84 480,83 481,82 481,80 482,79 482,77 483,76 483,74 484,73 484,71 485,70 485,68 486,67 486,65 487,64 487,62 488,61 488,60 491,57 493,57 492,56 492,55 482,55 481,56 481,57 483,57 485,59 485,63 484,64 484,66 483,67 483,69 482,70 482,72 481,73 481,75 480,76 479,75 479,73 478,72 478,70 477,69 477,68 476,67 476,65 475,64 475,62 474,61 474,59 476,57 477,57 477,55" stroke="white" stroke-width="1" /><polyline fill="none" points="447,55 446,56 445,56 443,58 443,59 442,60 442,65 443,66 443,67 446,70 447,70 449,72 450,72 451,73 452,73 453,74 454,74 456,76 456,77 457,78 457,79 454,82 450,82 449,81 448,81 445,78 445,77 444,76 442,76 442,82 443,83 448,83 449,84 457,84 458,83 459,83 461,81 461,79 462,78 462,73 461,72 461,71 459,69 458,69 457,68 456,68 455,67 454,67 453,66 452,66 450,64 449,64 448,63 448,62 447,61 447,60 448,59 448,58 449,57 454,57 457,60 457,61 458,62 460,62 461,61 460,60 460,55 458,55 457,56 455,56 454,55" stroke="white" stroke-width="1" /><polyline fill="none" points="432,55 431,56 429,56 428,57 426,57 426,59 427,59 429,61 429,80 427,82 426,82 426,84 437,84 439,82 438,82 436,80 436,79 435,78 435,77 436,76 435,75 435,63 436,62 436,55" stroke="white" stroke-width="1" /><polyline fill="none" points="395,55 401,55 402,56 402,58 403,59 403,61 402,62 402,69 403,70 403,80 404,81 409,81 410,82 409,83 408,83 407,84 401,84 397,80 397,79 396,78 396,58 395,58 393,56 393,57 394,57 396,59 396,78 397,79 397,81 400,84 408,84 409,83 410,83 412,81 411,82 410,82 409,81 413,77 413,75 414,74 414,58 412,58 411,57 411,56 412,55 418,55 420,57 420,79 421,80 422,80 423,81 422,82 421,82 420,83 418,83 417,84 415,84 414,83 414,79 414,84 417,84 418,83 420,83 421,82 423,82 423,80 422,80 420,78 420,56 419,55 411,55 411,57 412,58 413,58 414,59 414,74 413,75 413,76 408,81 405,81 403,79 403,70 402,69 402,62 403,61 403,59 402,58 402,55" stroke="white" stroke-width="1" /><polyline fill="none" points="374,55 373,56 371,56 366,61 366,62 365,63 365,68 364,69 364,70 365,71 365,75 366,76 366,78 371,83 373,83 374,84 381,84 382,83 384,83 389,78 389,76 390,75 390,73 391,72 391,66 390,65 390,62 388,60 388,59 386,57 385,57 384,56 382,56 381,55" stroke="white" stroke-width="1" /><polyline fill="none" points="262,55 261,56 259,56 258,57 256,57 256,59 257,59 259,61 259,80 257,82 256,82 256,84 267,84 269,82 271,82 273,84 284,84 284,82 283,82 281,80 281,63 286,58 290,58 291,59 291,60 292,61 292,80 290,82 289,82 289,84 300,84 301,83 301,82 299,80 299,79 298,78 298,75 299,74 299,66 298,65 298,59 297,58 297,57 295,55 287,55 286,56 285,56 284,57 283,57 282,58 281,57 281,55 277,55 276,56 275,56 274,57 272,57 272,58 271,59 272,59 274,61 274,80 272,82 268,82 266,80 266,79 265,78 265,75 266,74 266,56 265,55" stroke="white" stroke-width="1" /><polyline fill="none" points="193,55 192,56 190,56 185,61 185,63 184,64 184,75 185,76 185,77 186,78 186,79 189,82 190,82 191,83 192,83 193,84 200,84 201,83 203,83 208,78 208,77 209,76 209,73 210,72 210,66 209,65 209,63 208,62 208,61 207,60 207,59 205,57 204,57 203,56 201,56 200,55" stroke="white" stroke-width="1" /><polyline fill="none" points="166,55 165,56 164,56 163,57 161,57 160,58 160,59 161,60 162,60 163,61 163,80 161,82 160,82 160,84 171,84 172,83 172,82 169,79 169,65 170,64 170,63 172,61 172,60 173,59 175,59 176,60 177,60 178,61 181,61 182,60 182,56 181,55 174,55 173,56 172,56 171,57 171,58 173,56 174,56 175,55 180,55 182,57 182,59 180,61 179,61 178,60 176,60 175,59 173,59 170,62 169,62 168,61 168,60 168,61 170,63 170,64 169,65 169,79 170,80 170,81 171,81 172,82 172,83 171,84 161,84 160,83 162,81 163,81 163,60 161,60 160,59 160,58 161,57 163,57 164,56 166,56 167,55 168,55 169,56 169,58 169,55" stroke="white" stroke-width="1" /><polyline fill="none" points="348,50 347,51 346,51 345,52 345,81 355,81 356,80 357,80 357,79 358,78 358,77 359,76 359,75 360,74 361,75 361,78 360,79 360,82 358,84 352,84 351,83 352,84 358,84 359,83 360,83 360,79 361,78 361,74 360,74 358,76 358,77 357,78 357,79 356,80 355,80 354,81 346,81 345,80 345,53 348,50 349,50" stroke="white" stroke-width="1" /><polyline fill="none" points="335,50 336,50 338,52 338,80 337,81 336,81 335,82 335,83 336,84 341,84 342,83 348,83 342,83 341,84 336,84 335,83 335,82 336,81 338,81 338,51 337,51 336,50" stroke="white" stroke-width="1" /><polyline fill="none" points="139,50 139,51 138,52 138,54 139,55 138,56 138,66 139,67 144,67 145,66 147,66 149,64 149,63 150,62 150,54 147,51 144,51 143,50" stroke="white" stroke-width="1" /><polyline fill="none" points="128,50 129,50 132,53 132,80 131,81 130,81 129,82 128,82 129,82 130,81 132,81 132,53 131,52 131,51 130,51 129,50" stroke="white" stroke-width="1" /><polyline fill="none" points="336,48 348,48" stroke="white" stroke-width="1" /><polyline fill="none" points="227,48 227,49 226,50 226,53 225,54 226,55 228,55 228,54 229,53 229,52 230,51 231,51 232,50 235,50 236,51 236,80 234,82 233,82 233,83 234,84 246,84 247,83 247,82 246,82 243,79 243,52 245,50 248,50 250,52 250,54 251,55 253,55 253,51 254,50 254,48" stroke="white" stroke-width="1" /><polyline fill="none" points="130,48 144,48 145,49 150,49 151,50 152,50 156,54 156,55 157,56 157,60 156,61 156,62 152,66 151,66 150,67 149,67 148,68 146,68 145,69 141,69 140,70 139,70 139,71 138,72 138,73 139,74 139,81 140,81 142,83 141,84 128,84 142,84 142,82 141,82 139,80 139,74 138,73 138,72 141,69 145,69 146,68 148,68 149,67 151,67 152,66 153,66 156,63 156,61 157,60 157,56 156,55 156,53 153,50 151,50 150,49 145,49 144,48" stroke="white" stroke-width="1" /><polyline fill="none" points="310,47 310,48 309,49 309,51 305,55 303,55 303,57 304,57 306,59 306,79 307,80 307,81 309,83 310,83 311,84 315,84 316,83 318,83 319,82 319,81 314,81 313,80 313,78 312,77 312,65 313,64 312,63 313,62 313,60 312,59 314,57 319,57 313,57 313,58 312,59 313,60 313,62 312,63 313,64 312,65 312,77 313,78 313,81 318,81 319,82 318,83 316,83 315,84 311,84 306,79 306,58 305,57 304,57 303,56 304,55 306,55 309,52 309,49 311,47 312,48 312,53 313,54 313,55 318,55 314,55 312,53 312,47" stroke="white" stroke-width="1" /><polyline fill="none" points="529,45 528,46 527,46 526,47 524,47 523,48 523,49 525,49 526,50 526,51 527,52 527,84 531,84 532,83 534,83 535,82 536,82 536,81 535,80 534,80 533,79 533,45" stroke="white" stroke-width="1" /><polyline fill="none" points="515,45 514,46 513,46 512,47 510,47 512,47 513,46 515,46 516,45 518,45 519,46 519,80 521,80 522,81 520,83 518,83 517,84 514,84 512,82 512,73 513,72 512,71 512,70 513,69 512,68 512,66 513,65 513,63 512,62 512,55 513,54 513,53 512,52 512,50 511,50 510,49 509,49 510,49 512,51 512,52 513,53 513,54 512,55 512,62 513,63 513,65 512,66 512,68 513,69 512,70 512,71 513,72 512,73 512,82 513,83 513,84 517,84 518,83 520,83 521,82 522,82 522,81 521,80 520,80 519,79 519,45" stroke="white" stroke-width="1" /><polyline fill="none" points="499,44 498,45 498,49 499,50 500,50 501,51 502,50 503,50 504,49 504,45 503,44" stroke="white" stroke-width="1" /><polyline fill="none" points="430,44 429,45 429,50 431,50 432,51 433,50 434,50 435,49 435,45 434,44" stroke="white" stroke-width="1" /><polyline fill="none" points="260,44 259,45 259,50 264,50 265,49 265,45 264,44" stroke="white" stroke-width="1" /><polyline fill="none" points="34,39 33,40 30,40 29,41 27,41 26,42 25,42 23,44 22,44 18,48 18,49 16,51 16,52 15,53 15,55 14,56 14,58 13,59 13,61 12,62 12,72 14,72 16,70 16,69 20,65 20,61 21,60 20,61 20,64 19,65 18,64 18,58 19,57 19,55 21,53 22,54 22,57 22,53 20,53 20,54 19,55 19,57 18,58 18,63 17,64 17,65 15,67 14,66 14,62 15,61 15,59 16,58 16,56 17,55 17,54 18,53 18,52 25,45 26,45 28,43 30,43 31,42 33,42 34,41 46,41 47,42 46,43 44,43 43,44 36,44 36,45 35,46 35,47 31,51 30,50 30,47 28,47 26,49 26,51 25,52 25,54 24,55 24,57 25,58 23,60 23,61 25,59 25,58 26,57 26,56 27,55 27,53 27,55 26,56 26,57 25,58 24,57 24,55 25,54 25,52 26,51 26,50 29,47 30,48 30,51 31,51 35,47 35,46 37,44 43,44 44,45 43,46 38,46 37,47 37,48 32,53 31,53 30,54 29,53 29,54 31,54 33,52 34,52 37,49 37,48 39,46 43,46 44,45 46,45 47,44 49,44 50,45 49,46 49,48 48,49 48,52 47,53 47,59 46,60 46,62 46,60 47,59 47,53 48,52 49,53 49,58 50,59 50,58 51,57 51,54 52,53 53,54 53,94 54,95 54,104 54,95 53,94 53,54 52,53 52,48 52,53 51,54 51,57 50,58 49,57 49,53 48,52 48,49 49,48 50,49 50,51 50,49 49,48 49,46 50,45 50,44 47,44 46,43 48,41 49,42 49,41 34,41 33,40 34,39 41,39" stroke="white" stroke-width="1" /><polyline fill="none" points="54,34 55,35 55,36 55,35 56,34 55,35" stroke="white" stroke-width="1" /><polyline fill="none" points="66,29 65,30 63,30 62,31 61,31 58,34 60,32 61,32 62,31 63,31 64,32 62,34 61,34 59,36 58,36 56,38 56,39 56,38 57,37 58,38 59,38 60,39 65,39 66,38 74,38 75,39 77,39 78,40 79,40 80,41 81,41 82,42 83,42 84,43 85,43 90,48 90,49 92,51 92,52 94,54 94,55 95,56 95,58 94,59 92,59 90,57 89,57 87,55 87,54 88,53 90,55 91,55 93,57 91,55 90,55 88,53 88,51 87,50 87,49 85,47 85,46 84,45 83,45 82,44 81,44 81,46 82,47 82,49 82,47 81,46 81,45 82,44 85,47 85,48 86,49 85,50 84,50 84,51 83,52 82,51 81,51 80,50 79,50 76,47 75,47 74,46 74,45 68,45 67,44 68,43 72,43 73,42 74,42 76,44 76,45 77,45 80,48 75,43 75,42 74,42 73,41 71,43 68,43 67,42 64,42 63,41 61,41 60,42 59,42 59,43 58,44 57,43 56,44 55,43 55,42 55,43 56,44 57,43 58,44 59,44 61,46 62,46 63,47 64,47 72,55 72,56 74,58 74,59 75,60 75,63 76,64 76,70 75,71 75,75 74,76 74,78 73,79 73,81 72,82 71,81 71,80 70,79 70,77 72,75 72,73 73,72 73,66 71,66 71,67 70,68 69,67 69,64 70,63 70,57 68,57 67,58 67,59 66,60 65,59 65,58 64,57 64,50 62,50 58,46 57,46 56,47 55,46 54,46 54,50 54,47 55,46 56,47 56,48 59,51 60,51 62,53 62,57 63,58 63,61 65,63 66,63 67,62 69,64 69,67 70,68 70,69 71,68 71,67 72,66 73,67 73,72 72,73 72,74 71,75 71,76 70,77 70,79 69,80 68,79 68,76 69,75 68,76 68,79 69,80 69,84 70,85 70,87 72,87 73,86 73,85 74,84 74,82 75,81 75,80 76,79 76,77 77,76 77,71 78,70 78,64 77,63 77,60 76,59 76,57 75,56 75,55 74,54 74,53 68,47 67,47 66,46 67,47 68,47 73,52 73,53 75,55 75,56 76,57 76,59 75,60 74,59 74,58 73,57 73,56 71,54 71,53 67,49 66,49 64,47 63,47 59,43 61,41 63,41 64,42 67,42 68,43 67,44 66,44 67,44 68,45 73,45 77,49 78,49 80,51 81,51 82,52 84,52 84,51 86,49 88,51 88,53 87,54 86,53 86,52 86,53 87,54 87,56 88,56 90,58 91,58 92,59 93,59 95,61 97,61 97,56 96,55 96,53 95,52 95,51 94,50 94,49 91,46 91,45 89,43 88,43 86,41 85,41 84,40 85,41 86,41 93,48 93,49 95,51 95,52 96,53 96,55 95,56 94,55 94,54 93,53 93,52 91,50 91,49 85,43 84,43 82,41 81,41 80,40 78,40 77,39 75,39 74,38 66,38 65,39 60,39 59,38 60,37 64,37 66,35 66,34 67,33 69,35 72,35 73,36 74,36 73,36 72,35 73,34 74,34 73,33 74,32 75,32 76,33 77,33 79,35 78,36 78,37 78,36 79,35 80,35 81,36 84,36 85,35 84,34 83,34 81,32 82,31 83,31 84,32 85,32 90,37 89,38 87,38 86,39 85,38 82,38 85,38 86,39 87,38 90,38 90,36 87,33 86,33 84,31 82,31 81,30 79,30 78,29" stroke="white" stroke-width="1" /><polyline fill="none" points="57,29 56,30" stroke="white" stroke-width="1" /><polyline fill="none" points="57,26 54,29 54,30 53,31 53,32 53,31 54,30 54,29" stroke="white" stroke-width="1" /><polyline fill="none" points="60,22 59,23 57,23 51,29 51,36 50,37 49,36 49,35 46,32 45,32 43,30 42,30 40,28 39,28 38,27 35,27 34,26 25,26 24,27 21,27 20,28 18,28 17,29 16,29 12,33 12,35 35,35 36,36 38,36 39,37 41,37 42,36 44,36 47,39 50,39 50,37 51,36 52,37 52,39 52,37 51,36 51,30 52,29 52,28 56,24 57,24 58,23 59,23 60,22 65,22 66,23 65,24 64,24 59,29 59,30 57,32 65,24 66,24 66,22" stroke="white" stroke-width="1" /></svg>